<svg xmlns="http://www.w3.org/2000/svg" width="200" height="168.541" viewBox="0 0 200 168.541">
  <g id="Group_83" data-name="Group 83" transform="translate(-88 -831.459)">
    <g id="Group_80" data-name="Group 80" transform="translate(88 983.729)">
      <g id="Ellipse_4" data-name="Ellipse 4" transform="translate(0 0.271)" stroke="rgba(0,0,0,0)" stroke-width="1" opacity="0.22">
        <ellipse cx="100" cy="8" rx="100" ry="8" stroke="none"/>
        <ellipse cx="100" cy="8" rx="99.5" ry="7.5" fill="none"/>
      </g>
    </g>
    <g id="Group_82" data-name="Group 82" transform="matrix(0.995, 0.105, -0.105, 0.995, 75.152, 165.86)">
      <path id="Path_438" data-name="Path 438" d="M347.539,648.824s6.618,6.219,4.52,13.973,5.811,10.672,5.811,10.672l4.077.844-4.884-11.133-2.905-9.981-3.495-3.455Z" transform="translate(-124.644 -1.233)" fill="#484751"/>
      <path id="Path_439" data-name="Path 439" d="M334.653,648.232l3.026-1.408-.667,6.449,5.221,8.123-4.414,1.321-4.371-2.787a8.371,8.371,0,0,1-2.213-5.3l-.034-.808A5.958,5.958,0,0,1,334.653,648.232Z" transform="translate(-116.215 -0.154)" fill="#484751"/>
      <path id="Path_440" data-name="Path 440" d="M349.491,649.639a13.261,13.261,0,0,0-3.959-2.709c-4.308-1.715-4.249,2.513-3.584,6.89,10.315,12.679-2.535-3.11,8.573,10.532l7.42,6.108.95.782-.745-.963h0a26.451,26.451,0,0,1-3.769-8.062C351.935,654.25,352.672,652.756,349.491,649.639Zm4.345,12.71a29.285,29.285,0,0,0,3.312,7.031l-6.136-5.5-7.753-10.559c-.215-1.136-.783-4.986.217-5.519,1.154-.688,4.174,1.444,5.353,2.508C351.755,652.979,351.3,654.886,353.836,662.349Z" transform="translate(-121.588)" fill="#2b2a30"/>
      <path id="Path_441" data-name="Path 441" d="M298.354,713.31l-16.107-7.753s12.6.274,16.329-6.419,1.968-19.03,3.114-21.162,4.691-3.753,6.976-4.585,10.263,11.862,10.992,13.482S298.354,713.31,298.354,713.31Z" transform="translate(-90.968 -14.461)" fill="#47435b"/>
      <path id="Path_442" data-name="Path 442" d="M185.908,785.695l36.113-59.015s-9.936-15.564-20.338-10.494c0,0-5.2,3.229-7.158,18.9s-13.836,49.879-13.836,49.879Z" transform="translate(-38.588 -37.015)" fill="#2b2a30"/>
      <path id="Path_443" data-name="Path 443" d="M272.36,723.77c-3.317,7.762-19.131,22.849-37.266,35.536s-30.991,22.868-45.348,32.91-49.336,21.129-60.367,22.22-21.986-3.3-22.272-4.006c-.014-.032-.024-.064-.039-.1-1.854-4.62-3.269-12.341,9.632-19.528,14.972-8.347,25.4-28.893,25.4-28.893s8.111-25.521,13.016-36.481,8.092-27.488,28.318-21.808a36.622,36.622,0,0,0,12.682,1.447v0a23.736,23.736,0,0,0,15.3-6.606,10.51,10.51,0,0,0,1-1.124c3.835-2.681,1.922-12.461,1.283-16.6s2.629-7.292,2.629-7.292c14.561-7.223,38.893,26.359,38.893,26.359,3.733-1.193,16.236,10.162,16.236,10.162A14.935,14.935,0,0,1,272.36,723.77Z" transform="translate(0 -13.961)" fill="#6b5f8e"/>
      <path id="Path_444" data-name="Path 444" d="M273.631,723.77c-3.317,7.762-19.131,22.849-37.266,35.536s-30.991,22.868-45.348,32.91-54.912,27.774-65.943,28.866-13.955-4.662-15.863-8.771c-.252-.544-.547-1.175-.833-1.88-.014-.032-.024-.064-.039-.1,58.655-9.987,98.739-81.718,104.352-111.873a10.51,10.51,0,0,0,1-1.124c3.835-2.681,1.922-12.461,1.283-16.6s2.629-7.292,2.629-7.292C232.167,666.219,256.5,699.8,256.5,699.8c3.733-1.193,16.236,10.162,16.236,10.162A14.935,14.935,0,0,1,273.631,723.77Z" transform="translate(-1.271 -13.961)" fill="#6b5f8e" opacity="0.44" style="mix-blend-mode: multiply;isolation: isolate"/>
      <path id="Path_445" data-name="Path 445" d="M234.7,740.245c-.274.07-18.717,4.955-21.585,8.217-2.889,3.288-19.856,42.9-17.364,46.128s50.2,5.33,50.2,5.33l-9.929,6.946-53.266-3.184.541-6.231-2.61-.363s8.109-25.523,13.013-36.484,8.091-27.487,28.317-21.806A36.614,36.614,0,0,0,234.7,740.245Z" transform="translate(-38.589 -49.135)" fill="#302851"/>
      <path id="Path_446" data-name="Path 446" d="M273.672,755.72c-3.317,7.762-19.131,22.849-37.266,35.536-6,4.192-11.409,8.112-16.493,11.84-10.3,7.559-19.243,14.345-28.855,21.07-14.357,10.043-54.912,27.774-65.943,28.866a17.566,17.566,0,0,1-9.2-1.133c-3.835-1.764-5.452-5.031-6.663-7.638-.252-.544-.547-1.175-.833-1.88,1.835,1.557,6.022,1.44,9.292,1.1,18.125-1.875,36.966-16.22,62.892-38.259,18.487-15.718,31.95-32.251,42.5-43.487a79.987,79.987,0,0,1,11.452-10.586c11.985-8.384,14.633-10.116,21.984-19.4,3.733-1.193,16.236,10.162,16.236,10.162a11.58,11.58,0,0,1,1.119,2.22A15.053,15.053,0,0,1,273.672,755.72Z" transform="translate(-1.313 -45.91)" fill="#efe8a8"/>
      <path id="Path_447" data-name="Path 447" d="M281.879,758.734a15.053,15.053,0,0,1-.223,11.586c-3.317,7.762-19.131,22.849-37.266,35.536-6,4.192-11.409,8.112-16.493,11.84-10.3,7.559-19.243,14.345-28.855,21.071-14.357,10.043-54.912,27.774-65.943,28.865a17.566,17.566,0,0,1-9.2-1.133,114.021,114.021,0,0,0,23.553-5.685c16.464-6.219,89.825-47.149,126.626-91.982C277.017,765.252,279.6,761.89,281.879,758.734Z" transform="translate(-9.297 -60.51)" fill="#7c5c40"/>
      <path id="Path_448" data-name="Path 448" d="M281.879,758.734c3.495,8.637-1.315,14.933-7.524,21.968-12.927,14.214-29.831,25.564-43.778,35.607-6.819,4.874-18.439,13.835-30.5,22.263-14.807,10.439-53.313,26.933-65.167,28.889-3.191.647-7.728.586-11.012-.963a18.146,18.146,0,0,0,9.4,1.009c11.587-1.565,51.6-19.231,66.243-29.627,5.155-3.629,10.448-7.53,15.261-11.093,38.661-28.448,41.956-28.833,60.258-47.518C279.35,774.251,285.379,767.907,281.879,758.734Z" transform="translate(-9.297 -60.51)" fill="#3a322c"/>
      <path id="Path_449" data-name="Path 449" d="M392.428,755.72c-3.317,7.762-19.131,22.849-37.266,35.536-6,4.192-11.409,8.112-16.493,11.84,6.121-16.686,4.808-32.5,3.192-41.359a79.985,79.985,0,0,1,11.452-10.586c11.985-8.384,14.633-10.116,21.984-19.4,3.733-1.193,16.236,10.162,16.236,10.162A14.935,14.935,0,0,1,392.428,755.72Z" transform="translate(-120.069 -45.91)" fill="#63604c" opacity="0.28" style="mix-blend-mode: multiply;isolation: isolate"/>
      <path id="Path_450" data-name="Path 450" d="M181.841,853.288c-.21-.072-.688.223-1.724,2.424-1.62,3.439.043,3.783.043,3.783s4.043,2.971,6.522,1.885,1.14-2.366.205-3.575A45.8,45.8,0,0,0,181.841,853.288Z" transform="translate(-37.927 -111.501)" fill="#0c0c0c"/>
      <path id="Path_451" data-name="Path 451" d="M184.8,836.769l1.055,1.364,2.411-7.119-1.433.252S184.887,836.088,184.8,836.769Z" transform="translate(-40.709 -99.493)" fill="#0c0c0c"/>
      <path id="Path_452" data-name="Path 452" d="M197.451,786.876l1.3-4.192,2.419-1.692-1.509,6Z" transform="translate(-47.233 -72.514)" fill="#0c0c0c"/>
      <path id="Path_453" data-name="Path 453" d="M191.554,809.754c.4-.277,1.6-4.138,1.6-4.138l2.194-1.535-2.115,7.266Z" transform="translate(-44.191 -84.967)" fill="#0c0c0c"/>
      <path id="Path_454" data-name="Path 454" d="M196.056,822.111a2.04,2.04,0,0,0,2.416-.715c1.15-1.337-.59-4.378-2.459-6.8a32.7,32.7,0,0,1-3.547-7.187s-2.818,5.165-2.151,6.029S194.268,820.257,196.056,822.111Z" transform="translate(-43.5 -86.764)" fill="#0c0c0c"/>
      <path id="Path_455" data-name="Path 455" d="M198.751,784.665s4.965,7.438,6.227,9.749.45,4.253-1.422,3.922-6.105-9.479-6.105-9.479Z" transform="translate(-47.233 -74.496)" fill="#0c0c0c"/>
      <path id="Path_456" data-name="Path 456" d="M207.11,758.412l-2.021,1.414,1.149,3.833Z" transform="translate(-51.172 -60.337)" fill="#0c0c0c"/>
      <path id="Path_457" data-name="Path 457" d="M211,775.488c-.782,1.7-1.421,1.438-2.433,1.259s-5.386-6.966-5.386-6.966a6.066,6.066,0,0,1-1.452-2.551c-.5-1.671,1.587-5.747,1.587-5.747S211.78,773.787,211,775.488Z" transform="translate(-49.399 -61.992)" fill="#0c0c0c"/>
      <path id="Path_458" data-name="Path 458" d="M157.269,892.855s-23.921,14.626-21.863,16.584,42.529-12.19,42.529-16.715S157.269,892.855,157.269,892.855Z" transform="translate(-15.167 -131.709)" fill="#6b5f8e" opacity="0.43" style="mix-blend-mode: screen;isolation: isolate"/>
      <path id="Path_459" data-name="Path 459" d="M184.8,837.064s5.361,6.371,7.54,6.022,1.614-3.8,1.614-3.8l-7.121-7.723Z" transform="translate(-40.709 -99.788)" fill="#0c0c0c"/>
      <path id="Path_460" data-name="Path 460" d="M254.267,754.866s-15.309-2.1-19.446,7.412-19.632,41.089-8.495,41.089S269.227,754.866,254.267,754.866Z" transform="translate(-60.086 -58.319)" fill="#6b5f8e" opacity="0.43" style="mix-blend-mode: screen;isolation: isolate"/>
    </g>
  </g>
</svg>
