<svg xmlns="http://www.w3.org/2000/svg" width="210" height="171.697" viewBox="0 0 210 171.697">
  <g id="Group_76" data-name="Group 76" transform="translate(-83 -1285.303)">
    <g id="Group_14" data-name="Group 14" transform="translate(83 1440.729)">
      <g id="Ellipse_4" data-name="Ellipse 4" transform="translate(0 0.271)" stroke="rgba(0,0,0,0)" stroke-width="1" opacity="0.22">
        <ellipse cx="105" cy="8" rx="105" ry="8" stroke="none"/>
        <ellipse cx="105" cy="8" rx="104.5" ry="7.5" fill="none"/>
      </g>
    </g>
    <g id="Group_36" data-name="Group 36" transform="matrix(0.998, 0.07, -0.07, 0.998, -811.989, 555.437)">
      <g id="Group_35" data-name="Group 35" transform="translate(968.96 656.883)">
        <g id="Group_34" data-name="Group 34" transform="translate(100.235)">
          <path id="Path_368" data-name="Path 368" d="M1179.81,657.816c-2.631.855-5.354,1.9-5.1,4.854a5.653,5.653,0,0,0,2,4.154l4.878.63c-10.847-6.111-.049-12.7,9.051-6.2C1187.448,658.752,1181.887,657.141,1179.81,657.816Z" transform="translate(-1174.386 -657.281)" fill="#560404"/>
          <path id="Path_369" data-name="Path 369" d="M1214.31,672.963c-.577-1.644-3.351-5.352-7-7.955a7.028,7.028,0,0,1,1.931,2.163,63.816,63.816,0,0,1,3.529,9.031l7.908,6.1-5.594-4.519A10.625,10.625,0,0,0,1214.31,672.963Z" transform="translate(-1191.066 -661.037)" fill="#560404"/>
          <path id="Path_370" data-name="Path 370" d="M1198.073,674.63a15.147,15.147,0,0,0-.794-5.149c-1.294-4.1-6.874-8.552-11.065-10.311-4.932-2.116-7.26-1.531-9.642-.08-3.458,2.191-1.9,6.82,1.27,7.966-3.882-.857-6.366-7.44.761-9.82,6.3-2.119,17.575,5.748,19.134,12.11A14.079,14.079,0,0,1,1198.073,674.63Z" transform="translate(-1174.069 -656.883)" fill="#ff2c2c"/>
        </g>
        <path id="Path_371" data-name="Path 371" d="M1149.916,718.983s21.714-25.059,14.12-42.573l14.251,11.757,5.388,16.813Z" transform="translate(-1061.484 -666.867)" fill="#050505"/>
        <path id="Path_372" data-name="Path 372" d="M1137.657,715.956s-4.328,12.422-9.531,16.533-46.072,36.778-46.072,36.778-40.244,33.458-55.7,42.73-29.233,13.917-41.212,14.566-14.9-7.7-14.9-7.7a7.505,7.505,0,0,1-1.145-2.9v0a9.05,9.05,0,0,1,1.064-6.036c2.755-5.116,15.622-15.1,15.622-15.1s15.985-15.572,20.563-28.376,10.535-30.371,13.766-41.742c2.568-9.04.35-21.27-.667-25.905a2.35,2.35,0,0,1,1.5-2.726,14.706,14.706,0,0,1,15.919,3.452c8.077,8.129,39.067,5.5,43.494-.754s-8.847-22.585-8.847-22.585c4.126-1.056,15.993,1.874,24.166,9.193s24.562,14.575,24.562,14.575C1130.831,698.02,1137.657,715.956,1137.657,715.956Z" transform="translate(-968.96 -666.649)" fill="#32333a"/>
        <path id="Path_373" data-name="Path 373" d="M1069.464,836.351s8.974-25.218,7.289-29.52-19.306-13.892-19.306-13.892l4.725-12.307,5.479,2.284,2.8-6.377-5.032-2.336,4.773-12.248,5.706,1.951,2.947-7.119-5.293-2.049,5.17-11.434s43.62,17.21,75.375,8.282l-.815,13.381Z" transform="translate(-1014.204 -701.071)" fill="#5a5f75"/>
        <path id="Path_374" data-name="Path 374" d="M1080.216,713.46c-.9.709.5,15.927.5,15.927l-6.9,1.392c-.933-2.414-1.744-10.287-2.1-14.128a4.029,4.029,0,0,1,1.6-3.6,15.206,15.206,0,0,1,4.457-2.429v0a4.941,4.941,0,0,1,1.906-.21c3.206.376,6.142,3.865,6.323,4.09C1085.762,714.417,1081.09,712.766,1080.216,713.46Z" transform="translate(-1021.494 -684.24)" fill="#f41111"/>
        <path id="Path_375" data-name="Path 375" d="M1085.792,713.46c-.9.709.5,15.927.5,15.927s-5.669-13.767-2.942-18.761v0a4.942,4.942,0,0,1,1.906-.21c3.206.376,6.142,3.865,6.323,4.09C1091.338,714.417,1086.667,712.766,1085.792,713.46Z" transform="translate(-1027.071 -684.24)" fill="#6d0000"/>
        <path id="Path_376" data-name="Path 376" d="M1052.117,844.872a4.483,4.483,0,0,1-3.273.622c-2.208-.258-1.79,5.089-1.79,5.089s6.786-.772,9.691-3.067Z" transform="translate(-1008.874 -753.003)"/>
        <path id="Path_377" data-name="Path 377" d="M1064.58,810.355a31.976,31.976,0,0,0-2.25-4.015c-.831-1.052,1.592-4.906,1.592-4.906s5.678,7.678,6.137,11.2Z" transform="translate(-1016.612 -730.793)"/>
        <path id="Path_378" data-name="Path 378" d="M1058.167,814.479s9.352-3.226,12.368-5.61l-5.031-2.336-5.628,2.812S1056.26,813.139,1058.167,814.479Z" transform="translate(-1014.288 -733.4)"/>
        <path id="Path_379" data-name="Path 379" d="M1071.5,774.547l14.493-5.8L1080.7,766.7l-7.959,3.5S1071.08,772.577,1071.5,774.547Z" transform="translate(-1021.356 -713.034)"/>
        <path id="Path_380" data-name="Path 380" d="M1073.129,766.362l5.043,5.414,5.706,1.951-9.469-11.217S1072.685,764.668,1073.129,766.362Z" transform="translate(-1022.185 -710.891)"/>
        <path id="Path_381" data-name="Path 381" d="M1100.981,734.563s6.514-8.183,8.955-8.35,5.1,3.384,5.1,3.384l-8.088,7.078Z" transform="translate(-1036.463 -692.329)"/>
        <path id="Path_382" data-name="Path 382" d="M1102.745,773.537l-15.256,37.134,6.716,7.966s45.835-36.314,48.938-39.417S1109.587,769.826,1102.745,773.537Z" transform="translate(-1029.565 -715.947)" fill="#697087"/>
        <path id="Path_383" data-name="Path 383" d="M1137.8,740.885s-4.329,12.423-9.53,16.537S1082.2,794.2,1082.2,794.2s-40.244,33.461-55.7,42.732a115.151,115.151,0,0,1-24.708,11.44s-.014.005-.02.005a67.669,67.669,0,0,1-16.484,3.122c-11.978.646-14.9-7.7-14.9-7.7a5.963,5.963,0,0,1-.577-1.05,8.4,8.4,0,0,1-.567-1.853c.118.167,5.977,4.619,14.788,2.557,16.711-3.91,40.923-20.492,50.1-28.722,8.606-7.721,43.509-43.547,58.287-59.484.977-1.05,1.866-2.013,2.653-2.878,12.721-13.971,22.612-22.523,25.315-27.479,9.261-1.7,15.643,11.807,17.1,15.223C1137.7,740.6,1137.8,740.885,1137.8,740.885Z" transform="translate(-969.108 -691.581)" fill="#e5d285"/>
        <path id="Path_384" data-name="Path 384" d="M1171.857,740.885s-4.329,12.423-9.53,16.537-46.074,36.774-46.074,36.774-40.244,33.461-55.7,42.732a115.151,115.151,0,0,1-24.708,11.44c36.945-13.385,69.649-57.974,90.624-93.121.977-1.05,1.866-2.013,2.653-2.878,12.721-13.971,22.612-22.523,25.315-27.479,9.261-1.7,15.643,11.807,17.1,15.223C1171.75,740.6,1171.857,740.885,1171.857,740.885Z" transform="translate(-1003.161 -691.581)" fill="#e5d285" style="mix-blend-mode: multiply;isolation: isolate"/>
        <path id="Path_385" data-name="Path 385" d="M1138.081,756.194c.211.491.318.774.318.774s-4.328,12.422-9.531,16.533-46.072,36.778-46.072,36.778-40.244,33.458-55.7,42.73-29.233,13.917-41.212,14.566-14.9-7.7-14.9-7.7a5.887,5.887,0,0,1-.577-1.051c2.351,2.813,5.706,6.031,8.978,6.415,5.939.693,18.134,1.56,47.727-16.165S1106,786.49,1115.57,780.153C1123.825,774.684,1134.681,763.974,1138.081,756.194Z" transform="translate(-969.702 -707.661)" fill="#f41111"/>
        <path id="Path_386" data-name="Path 386" d="M1139,757.778c-1.843,5.2-5.389,13.59-9.781,16.968-46.682,37.89-79.356,64.859-98.119,77.421-12.132,7.929-27.909,14.993-42.765,16.266-4.5.4-8.977-.03-12.665-2.674a11.932,11.932,0,0,1-4.082-5.071c1.357,3.32,5.025,6.486,10.2,7.305a24.861,24.861,0,0,0,6.517.072c21.449-2.2,41.452-16.137,42.331-16.6,18.624-12.562,43.459-33.71,72.532-56.633,26.708-21.649,26.491-19.731,30.1-25.256A66.08,66.08,0,0,0,1139,757.778Z" transform="translate(-970.305 -708.471)" fill="#280505"/>
        <path id="Path_387" data-name="Path 387" d="M1079.43,789.915c-1.147,2.835-1.266,5.463-.265,5.868s2.744-1.565,3.892-4.4,1.267-5.463.264-5.868S1080.578,787.08,1079.43,789.915Z" transform="translate(-1024.961 -722.626)" fill="#697087"/>
        <path id="Path_388" data-name="Path 388" d="M1064.763,830.082c-1.148,2.835-1.266,5.463-.265,5.868s2.744-1.564,3.892-4.4,1.266-5.463.264-5.868S1065.911,827.247,1064.763,830.082Z" transform="translate(-1017.462 -743.164)" fill="#697087"/>
        <path id="Path_389" data-name="Path 389" d="M1097.165,750.033c-1.148,2.835-1.267,5.463-.265,5.868s2.744-1.565,3.891-4.4,1.266-5.463.265-5.868S1098.313,747.2,1097.165,750.033Z" transform="translate(-1034.029 -702.234)" fill="#697087"/>
      </g>
      <path id="Path_390" data-name="Path 390" d="M1257.273,768.084l-13.154,13.155a3.282,3.282,0,0,1-4.642,0l-4.28-4.279a3.283,3.283,0,0,1,0-4.642l13.155-13.155a3.283,3.283,0,0,1,4.642,0l4.278,4.279A3.281,3.281,0,0,1,1257.273,768.084Z" transform="translate(-135.637 -51.805)" fill="#280505"/>
      <path id="Path_391" data-name="Path 391" d="M1255.272,768.084l-13.154,13.155a3.282,3.282,0,0,1-4.642,0l-4.28-4.279a3.282,3.282,0,0,1,0-4.642l13.155-13.155a3.283,3.283,0,0,1,4.642,0l4.279,4.279A3.281,3.281,0,0,1,1255.272,768.084Z" transform="translate(-134.614 -51.805)" fill="#f41111"/>
    </g>
  </g>
</svg>
