<svg xmlns="http://www.w3.org/2000/svg" width="208" height="173.501" viewBox="0 0 208 173.501">
  <g id="Group_76" data-name="Group 76" transform="translate(-84 -834.499)">
    <g id="Ellipse_4" data-name="Ellipse 4" transform="translate(84 992)" stroke="rgba(0,0,0,0)" stroke-width="1" opacity="0.22">
      <ellipse cx="104" cy="8" rx="104" ry="8" stroke="none"/>
      <ellipse cx="104" cy="8" rx="103.5" ry="7.5" fill="none"/>
    </g>
    <g id="Group_33" data-name="Group 33" transform="translate(-489.044 615.301)">
      <g id="Group_32" data-name="Group 32" transform="translate(592.044 219.197)">
        <path id="Path_332" data-name="Path 332" d="M656.066,331.931l35.3-54.568a9.881,9.881,0,0,1,11.843-3.878c3.665,1.418,7.82,3.4,10.5,5.841,5.728,5.222,5.982,9.383,5.982,9.383l-54.558,60.728Z" transform="translate(-624.723 -246.571)" fill="#134715"/>
        <path id="Path_333" data-name="Path 333" d="M767.408,260.474s9.49,4.537,21.422-6.385,5.8-18.655,6.489-22.752,5.116-7.029,5.116-7.029l7.247,26.421L788.3,272.069Z" transform="translate(-681.557 -221.806)" fill="#134715"/>
        <path id="Path_334" data-name="Path 334" d="M762.19,277.378c-.453,2.7-22.921,17.441-22.921,17.441s-45.005,30.522-53.808,36.134-76.844,29.974-88.226,27.22c0,0-3.441.069-3.761-1.065-.885-3.138-2.186-9.479.614-12.692,0,0,13.425-11.167,15.131-12.254a13.064,13.064,0,0,0,1.948-2.932c.717-1.266,1.569-2.856,2.483-4.62,4.254-8.184,9.911-20.052,9.911-20.052s28.968-45.218,37.229-49.55c.081-.042.162-.08.238-.116.107-.048.216-.094.329-.137a.009.009,0,0,1,.008,0c3.045-1.179,7.819-.668,13.093.177,8.874,1.421,19.152,3.786,24.927.619.609-.335,1.191-.683,1.747-1.048,7.973-5.206,10.62-13.28,9.752-19.256a69.184,69.184,0,0,0-2.521-11.1s1.9-5.635,4.63-4.881a3.555,3.555,0,0,1,.656.29c4.265,2.31,21.08,16.52,24.717,20.454,3.868,4.186,11.348,15.8,10.8,19.059,0,0,.229.11.577.317,1.161.687,3.626,2.441,3.241,4.732C752.988,264.119,762.644,274.677,762.19,277.378Z" transform="translate(-592.219 -219.197)" fill="#1e6324"/>
        <g id="Group_27" data-name="Group 27" transform="translate(38.037 58.109)">
          <path id="Path_335" data-name="Path 335" d="M719.66,408.839l-7.04,4.49-11.231-4.558-26.867-10.9-4.783-1.943,3.628-6.306,5.708,2.37,27.768,11.524Z" transform="translate(-669.74 -364.299)" fill="#26bc34"/>
          <path id="Path_336" data-name="Path 336" d="M731,389.89l-7.04,4.489-8.357-3.393-28.5-11.563-6.026-2.443,3.628-6.306,6.942,2.879,29.388,12.2Z" transform="translate(-675.528 -354.626)" fill="#26bc34"/>
          <path id="Path_337" data-name="Path 337" d="M743.46,372.49l-7.04,4.484L730,374.37l-30.059-12.2-6.4-2.595,3.628-6.306,7.314,3.035,30.94,12.841Z" transform="translate(-681.888 -345.745)" fill="#26bc34"/>
          <path id="Path_338" data-name="Path 338" d="M757.68,357.109l-7.035,4.489-5.821-2.36L713.3,346.447,707.76,344.2l3.628-6.306,6.457,2.683,32.394,13.443Z" transform="translate(-689.146 -337.894)" fill="#26bc34"/>
          <path id="Path_339" data-name="Path 339" d="M684.063,394.464l27.768,11.524-5.454,5.253-26.867-10.9Z" transform="translate(-674.727 -366.77)" fill="#26bc34" style="mix-blend-mode: screen;isolation: isolate"/>
          <path id="Path_340" data-name="Path 340" d="M697.933,376.554l29.389,12.2-5.434,5.233-28.5-11.563Z" transform="translate(-681.811 -357.628)" fill="#26bc34" style="mix-blend-mode: screen;isolation: isolate"/>
          <path id="Path_341" data-name="Path 341" d="M710.162,362.1l30.689,12.755-4.172,4.017-30.059-12.2Z" transform="translate(-688.565 -350.252)" fill="#26bc34" style="mix-blend-mode: screen;isolation: isolate"/>
          <path id="Path_342" data-name="Path 342" d="M754.688,359.49l-4.086,3.938L719.08,350.635l3.51-4.535Z" transform="translate(-694.925 -342.083)" fill="#26bc34" style="mix-blend-mode: screen;isolation: isolate"/>
        </g>
        <path id="Path_343" data-name="Path 343" d="M851.753,240.011c-1.28.816-6.269-.66-11.391,1.891s-10.99,16.868-13.725,17.282-11.071-3.252-11.071-3.252l-1.046-1.429c7.973-5.206,10.62-13.28,9.752-19.256a69.2,69.2,0,0,0-2.521-11.1s1.9-5.635,4.63-4.881a3.559,3.559,0,0,1,.656.29C831.3,221.867,848.116,236.077,851.753,240.011Z" transform="translate(-705.604 -219.197)" fill="#0eaf22"/>
        <path id="Path_344" data-name="Path 344" d="M613.476,434.517l6.555,33.643L598.8,474.377l-1.62-3.6c-.426-1.012-3.636-2.641-3.883-3.757,0,0-3.2-8.32.614-12.692,0,0,13.425-11.167,15.131-12.254a13.069,13.069,0,0,0,1.948-2.932C611.71,437.871,612.562,436.281,613.476,434.517Z" transform="translate(-592.044 -329.105)" fill="#2b7f2f"/>
        <path id="Path_345" data-name="Path 345" d="M785.573,219.557a5.308,5.308,0,0,0-.771,4.939c1.182,3.737,7.085,10,3.78,17.487s-11.4,15.48-18.87,17.412c-7.229,1.871-32.319-5.758-36.424-4.641,3.045-1.179,7.819-.668,13.093.177,8.874,1.421,19.152,3.786,24.927.619,9.333-5.119,12.426-13.91,11.5-20.3a69.2,69.2,0,0,0-2.521-11.1s1.9-5.635,4.63-4.881A3.559,3.559,0,0,1,785.573,219.557Z" transform="translate(-664.14 -219.197)" fill="#272b28"/>
        <path id="Path_346" data-name="Path 346" d="M693.979,291.281c-4.944,9.412-58.4,79.522-60.413,80.805-2.133,1.359-2.736.413-2.93-4.6a15,15,0,0,1,.05-1.911c1.66-2.934,4.049-7.624,6.287-12.131,3.208-6.459,6.106-12.542,6.106-12.542s29.538-46.107,37.467-49.665C683.571,289.888,688.507,290.4,693.979,291.281Z" transform="translate(-611.738 -255.548)" fill="#272b28"/>
        <path id="Path_347" data-name="Path 347" d="M638.475,424.976s1.563.57,3.061-1.549-2.361-5.812-2.361-5.812l.7-1.417s-.856-.48-2.427.937-2.512,4.762-2.512,4.762A5.436,5.436,0,0,0,638.475,424.976Z" transform="translate(-613.938 -319.714)" fill="#eae298"/>
        <path id="Path_348" data-name="Path 348" d="M649.31,395.492s-2.09-.406-2.948.836a21.562,21.562,0,0,0-2.606,4.851c-.168.675,2.114,4.14,5.047,3.684s3.59-2.954,2.384-4.846a12.863,12.863,0,0,0-2.617-2.987Z" transform="translate(-618.435 -309.152)" fill="#eae298"/>
        <path id="Path_349" data-name="Path 349" d="M660.262,376.444a2.36,2.36,0,0,0,.018,2.733c.98,1.537,1.867,3.633,4.169,3.246s1.684-7.429-.021-9.36S660.262,376.444,660.262,376.444Z" transform="translate(-626.649 -297.521)" fill="#eae298"/>
        <path id="Path_350" data-name="Path 350" d="M674.214,359.83s3.917,5.849,5.676,4.728,1.919-1.167,1.051-3.939a32.6,32.6,0,0,0-3.263-6.413S672.931,357.817,674.214,359.83Z" transform="translate(-633.875 -288.11)" fill="#eae298"/>
        <path id="Path_351" data-name="Path 351" d="M690.246,333.614l-1.778,1.134c-1.048.668-1.945,2.561-2.421,3.736a2.748,2.748,0,0,0-.033,2c.556,1.487,1.821,4.142,3.924,4.723,2.958.817,3.42-.455,3.8-2.738.255-1.522-1.062-3.749-1.969-5.064a8.707,8.707,0,0,1-1.236-2.7Z" transform="translate(-639.922 -277.6)" fill="#eae298"/>
        <path id="Path_352" data-name="Path 352" d="M700.839,317.748s-.241-1.043-2.34,1.847-1.571,4.2-1.571,4.2A6.708,6.708,0,0,0,699,325.93c1.658,1.094,4.1,2.663,6.176-.191,1.48-2.032-1.062-4.482-2.651-5.725a5.251,5.251,0,0,1-1.683-2.266Z" transform="translate(-645.551 -269.408)" fill="#eae298"/>
        <path id="Path_353" data-name="Path 353" d="M763.322,319.281c-.45,2.7-22.921,17.443-22.921,17.443s-41.941,28.444-52.765,35.464c-.391.255-.739.475-1.043.671-8.8,5.61-25.217,18.907-51.712,30.975s-31.391,10.036-31.391,10.036a28.661,28.661,0,0,1-6.893-8.979c-.132-.274-.255-.548-.377-.832a18.461,18.461,0,0,1-1.023-3.2s-.269-.715-.588-1.846c5.16.583,15.054-.152,32.066-7.578,28.15-12.3,53.372-40.423,61.171-47.61,2.262-2.086,8.837-6.746,17.027-12.308,15.744-10.692,37.457-24.728,46.009-30.226,1.053.622,3.188,2.13,3.276,4.122a2.818,2.818,0,0,1-.035.607,93.073,93.073,0,0,1,7.662,9.586C762.8,317.175,763.45,318.536,763.322,319.281Z" transform="translate(-593.353 -261.103)" fill="#91babc"/>
        <path id="Path_354" data-name="Path 354" d="M860.315,319.281c-.45,2.7-22.921,17.443-22.921,17.443s-41.941,28.444-52.765,35.464c13.908-17.894,17.1-31.875,17.237-40.668,15.744-10.692,37.457-24.728,46.009-30.226,1.053.622,3.188,2.13,3.276,4.122a2.806,2.806,0,0,1-.035.607,93.076,93.076,0,0,1,7.662,9.586C859.792,317.175,860.443,318.536,860.315,319.281Z" transform="translate(-690.347 -261.103)" fill="#87afaf"/>
        <path id="Path_355" data-name="Path 355" d="M753.872,305.823,692.96,345.555s-41.858,37.223-64.513,49.671c-14.793,8.128-25.915,9.378-31.853,9.265-.129-.273-.255-.55-.373-.833a36.833,36.833,0,0,1-1.614-5.045c5.162.584,15.054-.148,32.067-7.578,28.152-12.293,53.375-40.422,61.169-47.606,6.5-5.99,48.434-33.847,62.193-42.726a1.18,1.18,0,0,1,1.383.067,9.69,9.69,0,0,1,2.862,3.961A.976.976,0,0,1,753.872,305.823Z" transform="translate(-593.352 -260.703)" fill="#bdf0f4"/>
        <path id="Path_356" data-name="Path 356" d="M767.8,330.531c1.011,1.567,1.665,2.927,1.539,3.676-.453,2.7-22.921,17.441-22.921,17.441s-45.005,30.522-53.808,36.134-25.22,18.906-51.716,30.976-31.392,10.035-31.392,10.035a26.888,26.888,0,0,1-3.106-3.169,129.553,129.553,0,0,0,43.349-14.505c26.422-14.184,37.157-23.689,47.606-30.351S767.1,334.747,767.8,330.531Z" transform="translate(-599.372 -276.026)" fill="#91babc" style="mix-blend-mode: multiply;isolation: isolate"/>
        <g id="Group_28" data-name="Group 28" transform="translate(10.134 58.18)" style="mix-blend-mode: multiply;isolation: isolate">
          <path id="Path_357" data-name="Path 357" d="M772.582,338.039c-1.094,4.209-75.349,53.26-76.4,53.945-11.68,7.526-28.416,21.433-60.934,34.734-3.841,1.516-18.224,7.124-22.5,5.907,4.231,1.09,18.654-4.824,22.318-6.351,32.257-13.666,49.721-28.069,60.591-35.114,1.216-.791,71.142-46.7,76.107-51.93A3.222,3.222,0,0,0,772.582,338.039Z" transform="translate(-612.745 -338.039)" fill="#2e4242"/>
        </g>
        <path id="Path_358" data-name="Path 358" d="M833.206,223.629a50,50,0,0,0,2.408,10.289c1.713,4.406,1.67,8.812-2.408,14.809,0,0,2.653-6.364,1.738-11.811-.65-3.867-4.467-11.822-3-13.287S833.206,223.629,833.206,223.629Z" transform="translate(-714.328 -221.127)" fill="#555b56"/>
        <path id="Path_359" data-name="Path 359" d="M610.828,458.322c-.527.131-9.914,8.241-11.627,8.241s-2.57,2.985-.734,3.6,14.835-4.237,16.523-5.925S613.643,457.621,610.828,458.322Z" transform="translate(-594.798 -341.221)" fill="#2b7f2f" opacity="0.39" style="mix-blend-mode: screen;isolation: isolate"/>
        <g id="Group_31" data-name="Group 31" transform="translate(109.323 21.899)">
          <g id="Group_29" data-name="Group 29" transform="translate(0 15.877)">
            <path id="Path_360" data-name="Path 360" d="M816.489,297.27c-.7-.279-1.137-.455-1.137-.455l.183-.454s.437.177,1.134.454Z" transform="translate(-815.352 -296.361)" fill="#272b28"/>
          </g>
          <g id="Group_30" data-name="Group 30" transform="translate(3.505)">
            <path id="Path_361" data-name="Path 361" d="M829.8,284.111a13.278,13.278,0,0,1-2.507-.7l.158-.464a12.42,12.42,0,0,0,2.381.675Zm2.571-.618-.214-.441a5.883,5.883,0,0,0,1.92-1.476l.372.318A6.371,6.371,0,0,1,832.368,283.492Zm-7.477-.943c-.8-.3-1.621-.611-2.379-.9l.176-.456c.757.292,1.571.6,2.374.9Zm10.872-2.9-.446-.2c.137-.3.282-.631.435-.978.186-.422.385-.874.6-1.345l.446.2c-.214.469-.412.919-.6,1.34C836.045,279.019,835.9,279.348,835.763,279.652Zm2.134-4.6-.434-.226c.426-.82.844-1.547,1.277-2.221l.412.264C838.728,273.531,838.317,274.246,837.9,275.052Zm2.737-4.205-.373-.317a12.984,12.984,0,0,1,1.852-1.805l.3.385A12.5,12.5,0,0,0,840.634,270.847Zm3.88-3.119-.263-.413.5-.322c.613-.392,1.149-.735,1.65-1.032l.25.421c-.5.294-1.028.634-1.636,1.023Zm4.378-2.409-.152-.466a11.044,11.044,0,0,1,2.54-.485l.042.488A10.574,10.574,0,0,0,848.892,265.319Zm4.949-.547-.011-.49a8.947,8.947,0,0,0,2.438-.353l.145.467A9.424,9.424,0,0,1,853.841,264.772Z" transform="translate(-822.512 -263.929)" fill="#272b28"/>
          </g>
        </g>
      </g>
      <path id="Path_362" data-name="Path 362" d="M637.965,420.991s-1.509,2.162-1.509,2.937,2.04,2.693,3.264,2.693,1.387-1.183,1.387-2.2S637.965,420.991,637.965,420.991Z" transform="translate(-22.669 -103.003)" fill="#f4efc9"/>
      <path id="Path_363" data-name="Path 363" d="M647.273,400.158s-2.083,2.407-1.838,3.631,3.182,4.023,4.61,1.971S647.273,400.158,647.273,400.158Z" transform="translate(-27.243 -92.369)" fill="#f4efc9"/>
      <path id="Path_364" data-name="Path 364" d="M664.489,374.369s-3.263,1.189-2.9,3.471,2.182,5.771,3.549,4.4S665.629,373.8,664.489,374.369Z" transform="translate(-35.486 -79.189)" fill="#f4efc9"/>
      <path id="Path_365" data-name="Path 365" d="M678.3,356.574s-3.039,1.673-2.631,3.142,2.8,6.332,4.406,4.724S678.3,356.574,678.3,356.574Z" transform="translate(-42.665 -70.122)" fill="#f4efc9"/>
      <path id="Path_366" data-name="Path 366" d="M690.087,336.574s-3.621,2.741-3.12,4.471,3.4,6.794,5.6,4.16S690.087,336.574,690.087,336.574Z" transform="translate(-48.428 -59.914)" fill="#f4efc9"/>
      <path id="Path_367" data-name="Path 367" d="M700.754,319.574s-2.937,2.856-2.652,4.2,3.875,5.426,5.466,2.978S700.754,319.574,700.754,319.574Z" transform="translate(-54.126 -51.236)" fill="#f4efc9"/>
    </g>
  </g>
</svg>
