<svg id="shopping-cart" xmlns="http://www.w3.org/2000/svg" width="48.818" height="41" viewBox="0 0 48.818 41">
  <path id="Path_331" data-name="Path 331" d="M7.151,70.558a1.43,1.43,0,0,1-1.357-.978L.073,52.417A1.43,1.43,0,0,1,1.43,50.535H37.4l.992-5.95A4.277,4.277,0,0,1,42.629,41h4.76a1.43,1.43,0,0,1,0,2.86h-4.76a1.426,1.426,0,0,0-1.411,1.2L37.186,69.246v2.742a4.3,4.3,0,0,1-3.411,4.2,3.575,3.575,0,1,1-5.645.091H14.777a3.576,3.576,0,1,1-5.717,0H7.151a1.43,1.43,0,1,1,0-2.86H32.9a1.432,1.432,0,0,0,1.43-1.43v-1.43ZM12.872,53.4H3.415l.953,2.86h8.5Zm0,5.721H5.322l.953,2.86h6.6Zm0,5.721H7.229l.953,2.86h4.69ZM20.023,53.4H15.732v2.86h4.291Zm0,5.721H15.732v2.86h4.291Zm0,5.721H15.732V67.7h4.291ZM27.174,53.4H22.884v2.86h4.291Zm0,5.721H22.884v2.86h4.291Zm0,5.721H22.884V67.7h4.291ZM36.928,53.4H30.035v2.86h6.416Zm-.953,5.721h-5.94v2.86H35.5ZM34.544,67.7l.477-2.86H30.035V67.7Z" transform="translate(0 -41)" fill="#fff"/>
</svg>
