<svg xmlns="http://www.w3.org/2000/svg" width="167.3" height="95.37" viewBox="0 0 167.3 95.37">
  <g id="Group_2" data-name="Group 2" transform="translate(0)">
    <g id="Polygon_1" data-name="Polygon 1" transform="translate(73.641 63.955) rotate(180)" fill="#e1af5a">
      <path d="M 72.77353668212891 63.13113784790039 L 0.8670023679733276 63.13113784790039 L 36.82027053833008 0.9983107447624207 L 72.77353668212891 63.13113784790039 Z" stroke="none"/>
      <path d="M 36.82027053833008 1.996623992919922 L 1.734001159667969 62.63113784790039 L 71.90653991699219 62.63113784790039 L 36.82027053833008 1.996623992919922 M 36.82027053833008 -3.814697265625e-06 L 73.64054107666016 63.63113784790039 L 0 63.63113784790039 L 36.82027053833008 -3.814697265625e-06 Z" stroke="none" fill="#707070"/>
    </g>
    <g id="Polygon_2" data-name="Polygon 2" transform="translate(167.3 63.955) rotate(180)" fill="#e1af5a">
      <path d="M 72.77353668212891 63.13113784790039 L 0.8670023679733276 63.13113784790039 L 36.82027053833008 0.9983107447624207 L 72.77353668212891 63.13113784790039 Z" stroke="none"/>
      <path d="M 36.82027053833008 1.996623992919922 L 1.734001159667969 62.63113784790039 L 71.90653991699219 62.63113784790039 L 36.82027053833008 1.996623992919922 M 36.82027053833008 -3.814697265625e-06 L 73.64054107666016 63.63113784790039 L 0 63.63113784790039 L 36.82027053833008 -3.814697265625e-06 Z" stroke="none" fill="#707070"/>
    </g>
    <g id="Path_303" data-name="Path 303" transform="translate(48.054 63.554) rotate(-60)" fill="#e1af5a">
      <path d="M 36.81898498535156 62.63126754760742 L 0.8680077791213989 0.5017427206039429 L 72.52232360839844 0.6450487375259399 L 36.81898498535156 62.63126754760742 Z" stroke="none"/>
      <path d="M 36.81798934936523 61.6312255859375 L 71.65830993652344 1.143322825431824 L 1.736010670661926 1.003480672836304 L 36.81798934936523 61.6312255859375 M 36.81998443603516 63.63131332397461 L 4.825439646083396e-06 4.75463866678183e-06 L 73.38633728027344 0.1467747539281845 L 36.81998443603516 63.63131332397461 Z" stroke="none" fill="#707070"/>
    </g>
  </g>
</svg>
