<svg xmlns="http://www.w3.org/2000/svg" width="327" height="89.478" viewBox="0 0 327 89.478">
  <g id="Group_40" data-name="Group 40" transform="translate(-43 -21.883)">
    <g id="Group_1" data-name="Group 1" transform="translate(5.5 -64)">
      <text id="alphA_" data-name="alphA " transform="translate(94.5 100)" fill="#fff" font-size="35" font-family="RubikMonoOne-Regular, Rubik Mono One"><tspan x="60.625" y="33">alphA </tspan></text>
      <text id="SHOES_" data-name="SHOES
" transform="translate(142.5 134)" fill="#fff" font-size="25" font-family="SegoeUI-Bold, Segoe UI" font-weight="700"><tspan x="47.278" y="27">SHOES</tspan></text>
    </g>
    <g id="Group_39" data-name="Group 39" transform="translate(11 -4)">
      <g id="Group_2" data-name="Group 2" transform="translate(32 25.883)">
        <g id="Polygon_1" data-name="Polygon 1" transform="translate(49.787 43.239) rotate(180)" fill="#e1af5a">
          <path d="M 48.91987609863281 42.51971817016602 L 0.8670002222061157 42.51971817016602 L 24.8934383392334 0.9983126521110535 L 48.91987609863281 42.51971817016602 Z" stroke="none"/>
          <path d="M 24.8934383392334 1.996627807617188 L 1.734001159667969 42.01971817016602 L 48.05287551879883 42.01971817016602 L 24.8934383392334 1.996627807617188 M 24.8934383392334 0 L 49.7868766784668 43.01971817016602 L 0 43.01971817016602 L 24.8934383392334 0 Z" stroke="none" fill="#707070"/>
        </g>
        <g id="Polygon_2" data-name="Polygon 2" transform="translate(113.108 43.239) rotate(180)" fill="#e1af5a">
          <path d="M 48.91987609863281 42.51971817016602 L 0.8670002222061157 42.51971817016602 L 24.8934383392334 0.9983126521110535 L 48.91987609863281 42.51971817016602 Z" stroke="none"/>
          <path d="M 24.8934383392334 1.996627807617188 L 1.734001159667969 42.01971817016602 L 48.05287551879883 42.01971817016602 L 24.8934383392334 1.996627807617188 M 24.8934383392334 0 L 49.7868766784668 43.01971817016602 L 0 43.01971817016602 L 24.8934383392334 0 Z" stroke="none" fill="#707070"/>
        </g>
        <g id="Path_303" data-name="Path 303" transform="translate(32.488 42.968) rotate(-60)" fill="#e1af5a">
          <path d="M 24.89224815368652 42.01979446411133 L 0.8679996132850647 0.5017381310462952 L 48.75100326538086 0.5975040793418884 L 24.89224815368652 42.01979446411133 Z" stroke="none"/>
          <path d="M 24.8912525177002 41.01975250244141 L 47.88699340820313 1.095778107643127 L 1.736002683639526 1.003476142883301 L 24.8912525177002 41.01975250244141 M 24.89324569702148 43.01984024047852 L -3.438720796111738e-06 1.202392638788297e-07 L 49.61501693725586 0.09923011809587479 L 24.89324569702148 43.01984024047852 Z" stroke="none" fill="#707070"/>
        </g>
      </g>
      <g id="Group_38" data-name="Group 38" transform="translate(32 50.883)">
        <g id="Polygon_1-2" data-name="Polygon 1" transform="translate(0 21.239)" fill="#e1af5a">
          <path d="M 48.91987609863281 42.51971817016602 L 0.8670002222061157 42.51971817016602 L 24.8934383392334 0.9983126521110535 L 48.91987609863281 42.51971817016602 Z" stroke="none"/>
          <path d="M 24.8934383392334 1.996627807617188 L 1.734001159667969 42.01971817016602 L 48.05287551879883 42.01971817016602 L 24.8934383392334 1.996627807617188 M 24.8934383392334 0 L 49.7868766784668 43.01971817016602 L 0 43.01971817016602 L 24.8934383392334 0 Z" stroke="none" fill="#707070"/>
        </g>
        <g id="Polygon_2-2" data-name="Polygon 2" transform="translate(63.321 21.239)" fill="#e1af5a">
          <path d="M 48.91987609863281 42.51971817016602 L 0.8670002222061157 42.51971817016602 L 24.8934383392334 0.9983126521110535 L 48.91987609863281 42.51971817016602 Z" stroke="none"/>
          <path d="M 24.8934383392334 1.996627807617188 L 1.734001159667969 42.01971817016602 L 48.05287551879883 42.01971817016602 L 24.8934383392334 1.996627807617188 M 24.8934383392334 0 L 49.7868766784668 43.01971817016602 L 0 43.01971817016602 L 24.8934383392334 0 Z" stroke="none" fill="#707070"/>
        </g>
        <g id="Path_303-2" data-name="Path 303" transform="translate(69.744 0) rotate(60)" fill="#e1af5a">
          <path d="M 0.8679996132850647 42.51810073852539 L 24.89224815368652 1.000046849250793 L 48.75100326538086 42.42233657836914 L 0.8679996132850647 42.51810073852539 Z" stroke="none"/>
          <path d="M 24.8912525177002 2.000087738037109 L 1.736003875732422 42.01636505126953 L 47.88699340820313 41.9240608215332 L 24.8912525177002 2.000087738037109 M 24.89324569702148 0 L 49.61501693725586 42.92060852050781 L -3.814697265625e-06 43.01984024047852 L 24.89324569702148 0 Z" stroke="none" fill="#707070"/>
        </g>
      </g>
    </g>
  </g>
</svg>
