<svg xmlns="http://www.w3.org/2000/svg" width="512" height="451.764" viewBox="0 0 512 451.764">
  <g id="cart" transform="translate(0 -30.118)">
    <g id="Group_88" data-name="Group 88">
      <g id="Group_87" data-name="Group 87">
        <path id="Path_478" data-name="Path 478" d="M473.668,139.109,410.282,303.914H153.733l-54.76-273.8H0V71.187H65.305l54.759,273.8H438.488L512,153.853Z" fill="#fff"/>
      </g>
    </g>
    <g id="Group_90" data-name="Group 90">
      <g id="Group_89" data-name="Group 89">
        <path id="Path_479" data-name="Path 479" d="M191.658,358.674a61.6,61.6,0,1,0,61.6,61.6A61.673,61.673,0,0,0,191.658,358.674Zm0,82.139a20.535,20.535,0,1,1,20.535-20.535A20.558,20.558,0,0,1,191.658,440.813Z" fill="#fff"/>
      </g>
    </g>
    <g id="Group_92" data-name="Group 92">
      <g id="Group_91" data-name="Group 91">
        <path id="Path_480" data-name="Path 480" d="M369.626,358.674a61.6,61.6,0,1,0,61.6,61.6A61.673,61.673,0,0,0,369.626,358.674Zm0,82.139a20.535,20.535,0,1,1,20.535-20.535A20.558,20.558,0,0,1,369.626,440.813Z" fill="#fff"/>
      </g>
    </g>
    <g id="Group_94" data-name="Group 94">
      <g id="Group_93" data-name="Group 93">
        <path id="Path_481" data-name="Path 481" d="M376.108,104.419a110.621,110.621,0,0,0-19.96-35.484,92.323,92.323,0,0,0-30.309-23.471,89.087,89.087,0,0,0-75.958,0,92.809,92.809,0,0,0-30.124,23.471,110.639,110.639,0,0,0-19.96,35.484,134.644,134.644,0,0,0-7.208,44.91,134.642,134.642,0,0,0,7.208,44.909,110.621,110.621,0,0,0,19.96,35.484,90.579,90.579,0,0,0,30.124,23.286,90.872,90.872,0,0,0,75.958,0,90.105,90.105,0,0,0,30.309-23.286,110.639,110.639,0,0,0,19.96-35.484,134.644,134.644,0,0,0,7.208-44.91A134.668,134.668,0,0,0,376.108,104.419Zm-46.019,71.892a68.888,68.888,0,0,1-9.425,21.069,44.6,44.6,0,0,1-14.415,13.676,35.9,35.9,0,0,1-18.3,4.8,36.606,36.606,0,0,1-18.666-4.8,44.583,44.583,0,0,1-14.415-13.676,68.841,68.841,0,0,1-9.425-21.069,102.46,102.46,0,0,1-3.327-26.983,104.563,104.563,0,0,1,3.327-27.167,68.7,68.7,0,0,1,9.425-21.253,44.658,44.658,0,0,1,14.415-13.676,36.668,36.668,0,0,1,18.666-4.805,35.962,35.962,0,0,1,18.3,4.805,44.648,44.648,0,0,1,14.415,13.676,68.646,68.646,0,0,1,9.425,21.253,104.569,104.569,0,0,1,3.327,27.167A102.407,102.407,0,0,1,330.089,176.311Z" fill="#fff"/>
      </g>
    </g>
  </g>
</svg>
