<svg id="XMLID_117_" xmlns="http://www.w3.org/2000/svg" width="491.111" height="491.111" viewBox="0 0 491.111 491.111">
  <path id="XMLID_121_" d="M310.082,245.553l51.883-51.877a19.628,19.628,0,0,0,0-27.77L325.2,129.147a19.642,19.642,0,0,0-27.768,0l-51.87,51.876-51.885-51.876a19.642,19.642,0,0,0-27.768,0l-36.753,36.759a19.625,19.625,0,0,0,0,27.77l51.876,51.877-51.884,51.875a19.641,19.641,0,0,0,0,27.779L165.9,361.968a19.647,19.647,0,0,0,27.769,0l51.893-51.885,51.878,51.885a19.646,19.646,0,0,0,27.768,0l36.769-36.761a19.672,19.672,0,0,0,0-27.779Z" fill="red"/>
  <path id="XMLID_118_" d="M245.556,0C110.16,0,0,110.162,0,245.564S110.16,491.111,245.556,491.111s245.555-110.16,245.555-245.547S380.95,0,245.556,0Zm0,438.2c-106.218,0-192.641-86.424-192.641-192.633,0-106.233,86.423-192.648,192.641-192.648S438.2,139.333,438.2,245.565C438.2,351.773,351.773,438.2,245.556,438.2Z"/>
</svg>
