<svg xmlns="http://www.w3.org/2000/svg" width="812.075" height="870.709" viewBox="0 0 812.075 870.709">
  <g id="Group_65" data-name="Group 65" transform="translate(-422.393 -86.642)">
    <g id="Group_59" data-name="Group 59" transform="translate(-79 -8)">
      <g id="Group_56" data-name="Group 56" transform="translate(526.276 763.585)">
        <path id="Path_333" data-name="Path 333" d="M59.276,107.856V80.34a7.5,7.5,0,0,1,15,0v27.516Z" transform="translate(-59.276 -72.84)" fill="#655e67"/>
      </g>
      <g id="Group_57" data-name="Group 57" transform="matrix(0.966, 0.259, -0.259, 0.966, 518.631, 700.307)">
        <path id="Path_340" data-name="Path 340" d="M64.1,96.356l-13.6,28.563a26.6,26.6,0,1,0,48.036,22.866l13.6-28.563Z" transform="translate(-47.918 -96.356)" fill="#8c818f"/>
      </g>
    </g>
    <g id="Group_58" data-name="Group 58" transform="matrix(0.819, 0.574, -0.574, 0.819, 837.9, 86.642)" opacity="0.1">
      <path id="Path_335" data-name="Path 335" d="M183.722,811.986l19.093-647.1,465.027-25.8L268.99,863.047l-45.563-4.953Z" transform="translate(-183.722 -139.092)" fill="#fcf5c7" opacity="0.3"/>
    </g>
  </g>
</svg>
