<svg xmlns="http://www.w3.org/2000/svg" width="183" height="167.612" viewBox="0 0 183 167.612">
  <g id="Group_81" data-name="Group 81" transform="translate(-2304 -471.388)">
    <g id="Group_78" data-name="Group 78" transform="translate(2311.923 471.888)">
      <path id="Path_304" data-name="Path 304" d="M2.61,19.386C.882,11.831,6.092,4.345,15.054,1.527c5.28-1.66,13.356-2.645,17.328.708C39.745,8.448,7.879,55.6,7.879,55.6L0,55.129A83.821,83.821,0,0,0,5.382,39.666C6.287,35.54,4.309,26.806,2.61,19.386Z" transform="translate(42.079 2.93)" fill="#0c0c0c" stroke="rgba(0,0,0,0)" stroke-width="1"/>
      <path id="Path_305" data-name="Path 305" d="M167.92,43.189s1.492,8.219-5.228,13-44.91,34.424-44.91,34.424S51.3,139.218,34.377,146.776s-32.322-7.342-32.322-7.342S-.974,134.386.323,129.287c.022-.092.046-.182.07-.271,1.139-4.008,15.6-18.318,23.587-26.984a51.382,51.382,0,0,0,4.868-5.791A40.539,40.539,0,0,0,31.416,90.2c1.549-4.23,3.448-10.029,5.433-16.131,3.322-10.238,6.875-21.326,9.358-27.291,2.534-6.087,2.04-12.494.95-17.31a37.036,37.036,0,0,0-2.649-7.778c-.346-2.482,1.729-5.241,5.162-7.784C56.508,8.823,68.724,4.583,77.84,5c9.39.427,19.128-2.512,24.318-4.4a10.068,10.068,0,0,1,7.651.337c4.9,2.322,13.244,6.182,17.548,7.629,6.328,2.128,23.757,20.89,23.757,20.89l9.18,7.505Z" transform="translate(0 0.162)" fill="#252326" stroke="rgba(0,0,0,0)" stroke-width="1"/>
      <path id="Path_306" data-name="Path 306" d="M94,21.837,27.632,65.69,2.058,65.315A15.54,15.54,0,0,1,.983,62.979a13.426,13.426,0,0,1-.658-7.8c.022-.092.044-.183.07-.27,1.476-5.187,25.3-27.64,28.461-32.749a40.817,40.817,0,0,0,2.567-6.04C32.968,11.89,34.867,6.1,36.853,0,40.323,4.649,45.905,10.731,51.5,10.985c5.075.227,12.659.325,19.418.754,5.341.337,10.16.876,12.811,1.846C89.723,15.782,94,21.837,94,21.837Z" transform="translate(0 74.284)" fill="#c97209" stroke="rgba(0,0,0,0)" stroke-width="1"/>
      <path id="Path_307" data-name="Path 307" d="M93.016,10.1,26.65,53.948,5.234,58.058c-1.02-1.346-4.16-4.486-4.16-4.486A15.542,15.542,0,0,1,0,51.237C20.718,42.622,54.458,13.785,69.934,0c5.341.337,10.16.876,12.811,1.846C88.743,4.042,93.016,10.1,93.016,10.1Z" transform="translate(0.983 86.029)" fill="#c97209" stroke="rgba(0,0,0,0)" stroke-width="1" opacity="0.35" style="mix-blend-mode: multiply;isolation: isolate"/>
      <path id="Path_308" data-name="Path 308" d="M43.612,13.208c-5.022,7.6-14.632,12.824-29.274,20.8C6.274,38.4,2.112,39.215,0,39.064c.022-.092.046-.181.07-.271C1.546,33.6,25.372,11.152,28.527,6.041A40.495,40.495,0,0,0,31.1,0C34.237,1.11,48.07,6.459,43.612,13.208Z" transform="translate(0.323 90.443)" fill="#494746" stroke="rgba(0,0,0,0)" stroke-width="1"/>
      <path id="Path_309" data-name="Path 309" d="M99.889,41.293,75.021,58.957a8.071,8.071,0,0,1-7.445.854,6.565,6.565,0,0,1-3.2-2.532c-2.823-4.392-5.352-10.415-2.345-15.194,5.39-8.568,8.914-14.836-3.99-16.705S13.083,37,8.487,34.624c-1.727-.893-4.225-4.4-6.674-8.43-4.626-7.626-.046-17,9.666-19.555A40.648,40.648,0,0,1,23.342,5.15C33.171,5.6,43.377,2.362,48.36.5a8.209,8.209,0,0,1,6.254.254C59.378,3.02,68.353,7.2,72.873,8.714c5.856,1.968,21.214,18.155,23.479,20.569a6.039,6.039,0,0,0,.619.572l3.286,2.683A5.314,5.314,0,0,1,99.889,41.293Z" transform="translate(54.474 0)" fill="#c97209" stroke="rgba(0,0,0,0)" stroke-width="1"/>
      <path id="Path_310" data-name="Path 310" d="M48.448,41.3,23.588,58.97a8.064,8.064,0,0,1-7.443.855C15.9,41.867,27.527,24.61,27.529,19.983,27.531,16.541,11.6,6.708,0,0A7.964,7.964,0,0,1,3.188.75C7.95,3.016,16.922,7.193,21.441,8.712c5.854,1.968,21.208,18.161,23.472,20.575a6.029,6.029,0,0,0,.619.573l3.285,2.684A5.317,5.317,0,0,1,48.448,41.3Z" transform="translate(105.915 0.005)" fill="#c97209" stroke="rgba(0,0,0,0)" stroke-width="1" opacity="0.35" style="mix-blend-mode: multiply;isolation: isolate"/>
      <path id="Path_311" data-name="Path 311" d="M50.116,14.078c-.41,5.674-11.2,16.575-15.854,21.869S26.878,52.8,20.854,57.074s-7.247,13.6-13.391,16.479A12.71,12.71,0,0,1,0,74.783c1.973-2.145,3.549-3.937,4.429-5.148.179-.238.32-.454.44-.641a40.848,40.848,0,0,0,2.566-6.041c1.545-4.23,3.443-10.023,5.429-16.124C16.188,36.6,19.74,25.518,22.22,19.555c2.534-6.082,2.043-12.488.954-17.3C29.126.97,35.808-.192,39.707.027A6.376,6.376,0,0,1,42.3.589C47.145,3.273,50.526,8.4,50.116,14.078Z" transform="translate(23.882 27.429)" fill="#494746" stroke="rgba(0,0,0,0)" stroke-width="1"/>
      <path id="Path_312" data-name="Path 312" d="M39.394,11.064c0,7.323-9.131,16.391-14.566,25.761S13.535,53.767,8.929,56.5,6.371,66.95,2.656,68.963A6.348,6.348,0,0,1,0,69.638C.179,69.4.32,69.184.44,69a40.859,40.859,0,0,0,2.566-6.042c.973-2.667,2.089-5.949,3.274-9.542.7-2.109,1.42-4.323,2.154-6.582,3.324-10.23,6.875-21.312,9.355-27.276,2.534-6.082,2.043-12.489.954-17.3A114.763,114.763,0,0,1,30.879.193,29.507,29.507,0,0,1,35.273.026C37.264,3.041,39.4,7.169,39.394,11.064Z" transform="translate(28.351 27.424)" fill="#494746" stroke="rgba(0,0,0,0)" stroke-width="1" opacity="0.51" style="mix-blend-mode: screen;isolation: isolate"/>
      <path id="Path_313" data-name="Path 313" d="M30.645,8.76C28.334,15.3,16.5,25.46,13.717,34.053S7,50.205,1.635,52.92a2.781,2.781,0,0,1-1.635.3c.7-2.109,1.42-4.322,2.154-6.582,3.324-10.23,6.875-21.312,9.355-27.275,2.534-6.082,2.043-12.489.954-17.3A114.76,114.76,0,0,1,24.6,0C28.1,1.891,31.994,4.956,30.645,8.76Z" transform="translate(34.636 27.604)" fill="#494746" stroke="rgba(0,0,0,0)" stroke-width="1" opacity="0.51" style="mix-blend-mode: screen;isolation: isolate"/>
      <path id="Path_314" data-name="Path 314" d="M8.729,2.267a.514.514,0,0,1,.54.353l6.937,18.293a.38.38,0,0,1-.2.533L9.553,23a.514.514,0,0,1-.54-.353L2.075,4.359a.379.379,0,0,1,.2-.533L8.729,2.267ZM7.89.054,1.441,1.613C.213,1.91-.338,3.348.215,4.808L7.153,23.1a3.045,3.045,0,0,0,3.239,2.115l6.449-1.559c1.228-.3,1.779-1.735,1.225-3.195L11.129,2.17A3.045,3.045,0,0,0,7.89.054Z" transform="translate(49.482 16.392)" fill="#d8ba98" stroke="rgba(0,0,0,0)" stroke-width="1"/>
      <path id="Path_315" data-name="Path 315" d="M12.245,0s7,14.643,6.248,15.178S7.181,20.4,6.086,20.353-1.368,6.853.267,4.945,12.245,0,12.245,0Z" transform="translate(41.39 21.632)" fill="#ed7f07" stroke="rgba(0,0,0,0)" stroke-width="1"/>
      <path id="Path_316" data-name="Path 316" d="M0,14.912,6.686,29.251s32.974-9.559,36.565-12.111,6.879-11.512,4.3-15.307S43.561.7,29.756,4.7,0,14.912,0,14.912Z" transform="translate(56.258 5.359)" fill="#ed7f07" stroke="rgba(0,0,0,0)" stroke-width="1"/>
      <path id="Path_317" data-name="Path 317" d="M5.359.088a3.912,3.912,0,0,0-3,.57C.97,1.646,0,5.427,0,5.427L2.3,8.2a3.712,3.712,0,0,0,3.668.209,2.333,2.333,0,0,0,.682-3.853A12.177,12.177,0,0,1,4.8,1.706Z" transform="translate(27.31 86.598)" fill="#efcaa3" stroke="rgba(0,0,0,0)" stroke-width="1"/>
      <path id="Path_318" data-name="Path 318" d="M2.628.07A3.875,3.875,0,0,0,.5.256C-.119.69.011,4.621.011,4.621l1.75,1.591s3.815.649,4.709.814S7.819,5.682,7.64,4.175,2.628.07,2.628.07Z" transform="translate(32.429 80.424)" fill="#efcaa3" stroke="rgba(0,0,0,0)" stroke-width="1"/>
      <path id="Path_319" data-name="Path 319" d="M2.843,0S1.711-.165.425,1.722s.756,3.385.756,3.385S5.316,6.27,6.009,6.89a4.46,4.46,0,0,0,3.65,1.6,1.815,1.815,0,0,0,1.72-2.429C11.06,5.405,4.759-.177,2.843,0Z" transform="translate(34.674 72.023)" fill="#efcaa3" stroke="rgba(0,0,0,0)" stroke-width="1"/>
      <path id="Path_320" data-name="Path 320" d="M2.755,0S-2.024,2.646,1.007,5.355l7.095.43s1.951.38,2.685-.141.076-3.03-2.586-3.984S2.755,0,2.755,0Z" transform="translate(37.29 64.259)" fill="#efcaa3" stroke="rgba(0,0,0,0)" stroke-width="1"/>
      <path id="Path_321" data-name="Path 321" d="M1.9,0S-1.045,4.137.4,5.427,10.687,11.114,12.622,11.2s2.757-.138,2.9-2.058S13.45,6.694,10.33,5.1,1.9,0,1.9,0Z" transform="translate(41.676 52.726)" fill="#efcaa3" stroke="rgba(0,0,0,0)" stroke-width="1"/>
      <path id="Path_322" data-name="Path 322" d="M1,5.474S-.675,3.617.311,2.145A6.563,6.563,0,0,1,2.827,0S13.155.86,14.463,2.028s1.05,2.8-.624,3.345S1,5.474,1,5.474Z" transform="translate(43.672 46.414)" fill="#efcaa3" stroke="rgba(0,0,0,0)" stroke-width="1"/>
      <path id="Path_323" data-name="Path 323" d="M166.49,13.729s1.492,8.213-5.228,12.988-44.913,34.4-44.913,34.4-66.491,48.568-83.413,56.119-24.988,5.61-26.19,4.036C5.7,119.906,2,115.6.689,113.368a4.571,4.571,0,0,1-.412-.859c-.329-1.049-.516-1.9.334-2.612,3.64.153,14.035-.983,39.164-16.732C72.7,72.531,96.357,45.346,111.769,32.848c15.339-12.435,28.508-21.487,37.9-32.777a.218.218,0,0,1,.3-.019l2.3,2.062Z" transform="translate(1.445 29.709)" fill="#ffe8d2" stroke="rgba(0,0,0,0)" stroke-width="1"/>
      <path id="Path_324" data-name="Path 324" d="M160.576,24.749c-6.723,4.776-44.915,34.4-44.915,34.4s-66.491,48.569-83.413,56.12S7.259,120.873,6.059,119.3c-.521-.678-1.705-2.089-2.922-3.609A43.878,43.878,0,0,1,0,111.4c2.695-.134,7.2-1.093,14.692-4.087,17.052-6.814,52.324-29.67,66.239-44.194s41.582-38.375,53.479-46.828C143.172,10.067,148.988,4.2,151.5.159a.38.38,0,0,1,.549-.074l7.945,6.791,1.563,1.337,2.249,1.919,2,1.63S167.294,19.977,160.576,24.749Z" transform="translate(2.133 31.678)" fill="#efc495" stroke="rgba(0,0,0,0)" stroke-width="1"/>
      <path id="Path_325" data-name="Path 325" d="M0,10.393l.48,2.474L14.691,1.776,14.161,0Z" transform="translate(126.066 59.926)" fill="#efc495" stroke="rgba(0,0,0,0)" stroke-width="1" style="mix-blend-mode: multiply;isolation: isolate"/>
      <path id="Path_326" data-name="Path 326" d="M11.874,4.277C10.579,6.234.868,14.334.868,14.334L0,12.717s8.814-7.55,10.418-9.924.805-2.823.9-2.791l1.563,1.337c.081.115.125.183.125.183S13.167,2.319,11.874,4.277Z" transform="translate(150.807 38.489)" fill="#efc495" stroke="rgba(0,0,0,0)" stroke-width="1" style="mix-blend-mode: multiply;isolation: isolate"/>
      <path id="Path_327" data-name="Path 327" d="M162.667,1.8s1.492,8.212-5.228,12.987-44.915,34.395-44.915,34.395S46.031,97.749,29.109,105.3,4.121,110.91,2.918,109.336c-.522-.679-1.7-2.088-2.918-3.609a47.421,47.421,0,0,0,17.432-2.314C30.647,99.24,69.7,74.475,79.263,66.852s41.917-30.939,43.654-32.174c1.7-1.209,33.464-22.3,37.732-34.465a.384.384,0,0,1,.633-.084Z" transform="translate(5.274 41.643)" fill="#472f15" stroke="rgba(0,0,0,0)" stroke-width="1"/>
      <path id="Path_328" data-name="Path 328" d="M8.3,0S1.631,1.641.247,2.809s3.433,12.658,5.2,12.657,6.611-1.492,8.2-4.012S12.514,0,8.3,0Z" transform="translate(42.6 24.591)" fill="#ed7f07" stroke="rgba(0,0,0,0)" stroke-width="1" opacity="0.27" style="mix-blend-mode: screen;isolation: isolate"/>
      <path id="Path_329" data-name="Path 329" d="M0,9.935,5.143,20.068s24.14-5.448,27.538-10.145S37.849-1.187,29.7.19,0,9.935,0,9.935Z" transform="translate(58.984 12.183)" fill="#ed7f07" stroke="rgba(0,0,0,0)" stroke-width="1" opacity="0.27" style="mix-blend-mode: screen;isolation: isolate"/>
      <path id="Path_330" data-name="Path 330" d="M25.831,0S-4.581,22.335.592,24.134s13.08-5.084,13.08-5.084S32.516,7.01,32.517,3.883,25.831,0,25.831,0Z" transform="translate(8.899 98.508)" fill="#494746" stroke="rgba(0,0,0,0)" stroke-width="1" opacity="0.4" style="mix-blend-mode: screen;isolation: isolate"/>
    </g>
    <g id="Group_80" data-name="Group 80" transform="translate(2304 624.957)">
      <g id="Ellipse_4" data-name="Ellipse 4" transform="translate(0 -0.957)" stroke="rgba(0,0,0,0)" stroke-width="1" opacity="0.22">
        <ellipse cx="91.5" cy="7.5" rx="91.5" ry="7.5" stroke="none"/>
        <ellipse cx="91.5" cy="7.5" rx="91" ry="7" fill="none"/>
      </g>
    </g>
  </g>
</svg>
