<svg xmlns="http://www.w3.org/2000/svg" width="200" height="182.898" viewBox="0 0 200 182.898">
  <g id="Group_81" data-name="Group 81" transform="translate(-88 -817.102)">
    <g id="Group_79" data-name="Group 79" transform="translate(20.802 582.7) rotate(8)">
      <g id="Group_78" data-name="Group 78" transform="translate(126.893 218.841)">
        <path id="Path_400" data-name="Path 400" d="M221.116,330.324l-2.03.8-1.046,3.295,1.814-1.176Z" transform="translate(-172.465 -269.519)" fill="#a09b7d"/>
        <path id="Path_401" data-name="Path 401" d="M252.539,279.982s-.619-2.027-5.613-8.813a26.17,26.17,0,0,0-1.692-2.067,11.8,11.8,0,0,0-18.023.4,26.7,26.7,0,0,0-3.823,5.707l-23.846,51.1Z" transform="translate(-163.216 -239.876)" fill="#0f0f0f"/>
        <path id="Path_402" data-name="Path 402" d="M129.915,367.016c1.43,2.244,7.17,4.484,12.593,7.1,5.7,2.755,11.122,5.83,13.566,5.443a27.077,27.077,0,0,0,6.321-1.487l-1.419-2.228,3.51-1.779,1.585,1.221,6.4-3.214-.143-2.184,3.1-1.469.62,1.292,6.517-3.4.238-2.163,2.724-2.064,1.828,1.919,6.672-5.056-.821-2.24,3.132-2.373,1.638,1.621,6.672-5.056-.307-1.749,2.954-2.019.893,1.085,7.353-5.572-.674-1.692,3.5-2.431,1.088,1.708,6.809-5.159-.952-1.811,3.336-2.528,1.393,2.028,6.876-5.21-1.188-2.183,3.158-2.173,1.23,1.931,7.092-4.713-1.236-2.257,3.085-2.447,1.419,2.228,6.923-5.687-1.324-2.079,2.42-1.834,1.313,1.427,5.793-4.059-.806-2.692,2.389-1.48s1.07.73,4.951-2.211,6.6-2.8,6.6-2.8l2.043-1.548s.771-3.227.938-4.234,4.413-4.72,5.278-4.55a21.637,21.637,0,0,0,3.654-.126l2.786-2.441s-.794-5.458.127-6.706c.834-1.13-5.852-8.071-10.581-13.071-.5-.526-.884-3.264-1.25-3.75-2.565-3.409-4.192-4.286-4.192-4.286s-12.7-26.274-19.542-25.93c0,0-9.792-10.124-15.727-10.941h0a4.064,4.064,0,0,0-2.03.173c-5.345,2.068.6,15.841-1.782,21.61s-19.051,15.1-28.561,15.7q-.618.038-1.231.083c-7.194.512-13.85,1.482-16.262,1.856h-.006c-.616.1-.953.152-.953.152L164.27,303.044l-3.676,2.785s-5.932,14.845-11.479,23.783c-.632,1.018-1.258,1.959-1.871,2.794a20.773,20.773,0,0,1-1.712,2.076C141.157,339.044,134.1,344.7,130.109,349c-1.651,1.782-2.775,3.332-2.964,4.475a19.453,19.453,0,0,0,2.447,13.013C129.695,366.664,129.8,366.841,129.915,367.016Z" transform="translate(-126.893 -218.867)" fill="#4b5370"/>
        <path id="Path_403" data-name="Path 403" d="M360.068,308.282l-14.1,11.579s-1.3-26.764-.325-42.036c.88-13.8,17.745-34.318,20.99-38.147.35-.409.54-.627.54-.627,6.851-.344,19.545,25.929,19.545,25.929s5.44,3.807,6.265,9.883C393.072,275.485,360.068,308.282,360.068,308.282Z" transform="translate(-236.086 -228.027)" fill="#24283f"/>
        <path id="Path_404" data-name="Path 404" d="M410.346,280.121l-31.7,28.16c-.569-4.816-1.05-10.036-1.3-15.321-.625-13.194,4.111-38.038,7.376-53.282.324-.409.5-.627.5-.627,6.335-.344,18.076,25.929,18.076,25.929Z" transform="translate(-252.089 -228.027)" fill="#04060c"/>
        <path id="Path_405" data-name="Path 405" d="M127.4,445.748S141.2,461.718,146.8,461s41.009-21.828,41.009-21.828-1.811-3.192-4.184-6.523c-2.42-3.394-5.425-6.93-7.7-7.376-2.776-.545-9.959.32-15.74.65h0c-1.4.081-2.722.129-3.877.119a9.029,9.029,0,0,1-3.878-.58,10.042,10.042,0,0,1-3.064-3.578c-.632,1.018-1.258,1.959-1.871,2.794a20.783,20.783,0,0,1-1.712,2.076C139.6,433.206,128.043,441.841,127.4,445.748Z" transform="translate(-127.145 -311.141)" fill="#49519b"/>
        <path id="Path_406" data-name="Path 406" d="M241.126,360.345l-26.011,19.712a55.96,55.96,0,0,0-11.39-8.329A49.668,49.668,0,0,0,180.29,365h-.006q-1.9-.033-3.875.115-1.7.131-3.45.414c-2.58.415-4.31-.245-5.345-1.762l-.014-.016c.61-.835,1.235-1.773,1.87-2.793,5.546-8.939,11.475-23.78,11.475-23.78l3.675-2.787,27.166-44.523.955-.153h.006c.925-.142,2.48-.376,4.455-.633,3.155-.419,7.38-.9,11.805-1.221-12.225,16.8-42.075,58.344-41.09,62.156,1.235,4.789,26.965,3.349,35.276,2.776S241.126,360.345,241.126,360.345Z" transform="translate(-147.246 -250.218)" fill="#24283f"/>
        <path id="Path_407" data-name="Path 407" d="M217.2,290.1l-29.975,46.552-4.721,2.509s-6.31,15.965-9.31,20.328a22.254,22.254,0,0,1-5.58,5.3l-.014-.016c.61-.835,1.235-1.773,1.87-2.793,5.546-8.939,11.475-23.78,11.475-23.78l3.675-2.787,27.166-44.523.955-.153h.006C213.671,290.594,215.226,290.36,217.2,290.1Z" transform="translate(-147.246 -251.235)" fill="#c40e0e"/>
        <path id="Path_408" data-name="Path 408" d="M226.49,409.159l-67.252,43.7L142.5,459.207c-5.425-2.624-11.152-5.449-12.582-7.7a19.149,19.149,0,0,1-2.165-4.7,19.552,19.552,0,0,1-.605-8.847c.191-1.14,1.311-2.694,2.966-4.472,2.635,4.134,8.75,3.529,19.73-2.367s35.926-20.617,49.667-24.975c11.35-3.6,22.35.8,25.84,2.433C226.09,408.936,226.49,409.159,226.49,409.159Z" transform="translate(-126.894 -303.363)" fill="#24283f"/>
        <path id="Path_409" data-name="Path 409" d="M227.347,412.337l-67.252,43.7-17.049,6.408c-5.425-2.624-10.841-5.508-12.271-7.755a19.148,19.148,0,0,1-2.165-4.7c15-2.007,40.051-6.7,56.537-16.832,21.905-13.466,27.166-17.792,41.06-21.4C226.947,412.113,227.347,412.337,227.347,412.337Z" transform="translate(-127.751 -306.54)" fill="#04060c"/>
        <path id="Path_410" data-name="Path 410" d="M224.255,355.884s10.6-2.526,23.147,3.392,29.3,19.978,29.3,19.978l29.2-25.77s-27.311.561-37.673-8.1-17.4-14.7-31.53-10.365S224.255,355.884,224.255,355.884Z" transform="translate(-175.541 -270.998)" fill="#24283f"/>
        <path id="Path_411" data-name="Path 411" d="M132.614,397.786c1.139,1.788,4.618,4.193,8.729,6.422,1.049.569,2.611.426,3.713.958,5.7,2.756,11.273,5.554,13.717,5.168a27.08,27.08,0,0,0,6.321-1.487l-1.419-2.228,3.51-1.779,1.585,1.221,6.4-3.214-.143-2.184,3.1-1.469.62,1.292,6.517-3.4.238-2.163,2.724-2.064,1.828,1.919,6.672-5.056-.821-2.24,3.132-2.373,1.638,1.621,6.672-5.056-.307-1.749,2.954-2.019.893,1.085,7.353-5.572-.673-1.692,3.5-2.431,1.088,1.708,6.809-5.159-.952-1.811,3.336-2.528,1.393,2.028,6.876-5.21-1.188-2.183,3.158-2.173,1.23,1.931,7.092-4.714-1.236-2.257,3.085-2.447,1.419,2.228,6.923-5.687-1.325-2.079,2.42-1.834,1.313,1.427,5.793-4.059-.806-2.692,2.389-1.48s1.071.73,4.951-2.211,6.6-2.8,6.6-2.8l2.043-1.548s.771-3.227.938-4.234,4.413-4.72,5.278-4.55a21.64,21.64,0,0,0,3.654-.126l2.786-2.441s.34-4.222,1.261-5.469c.771-1.044-4.08-10.691-8.554-16.094-.365-.443-.729-.857-1.087-1.235a14.01,14.01,0,0,0-1.449-1.353c-4.9-3.886-6.066-3.661-6.066-3.661s4.282,2.5-.552,10.12-39.188,29.628-57.5,54.435-70.931,48.376-82.834,48.02c-2.916-.087-5.208-1.246-7.055-1.907C132.394,397.434,132.5,397.611,132.614,397.786Z" transform="translate(-129.591 -249.637)" fill="#b6cecd"/>
        <path id="Path_412" data-name="Path 412" d="M306.438,314.139c-.92,1.249-1.26,5.471-1.26,5.471l-2.786,2.444a21.786,21.786,0,0,1-3.655.125c-.865-.169-5.115,3.54-5.28,4.549-.135.84-.691,3.207-.875,3.982-.041.158-.06.251-.06.251l-.82.622-1.225.927s-2.715-.142-6.6,2.8-4.95,2.209-4.95,2.209l-2.39,1.478.8,2.694-5.79,4.058-1.315-1.429-2.421,1.838,1.326,2.078-6.921,5.683-1.42-2.225-3.085,2.449,1.236,2.253-7.09,4.718-1.23-1.931-3.161,2.171,1.191,2.182-6.881,5.214-1.39-2.029-3.335,2.525.95,1.811-6.811,5.16-1.085-1.707-3.5,2.433.675,1.691-7.355,5.574-.891-1.085-2.955,2.018.305,1.745-6.671,5.056-1.64-1.62-3.13,2.373.82,2.242-6.67,5.056-1.831-1.92-2.72,2.067-.24,2.16-6.515,3.4-.621-1.293-3.105,1.473.145,2.182-6.4,3.213-1.585-1.222-3.51,1.784,1.42,2.225a27,27,0,0,1-6.32,1.489c-2.161.338-7.141-1.26-12.206-3.54-.66-.3-1.325-.611-1.985-.927-1.105-.535-2.195-1.091-3.24-1.658a28.787,28.787,0,0,1,3.5-.665c23.41-3.174,63.821-34.776,109.257-74.254,22.091-19.2,31.2-30.206,34.731-36.456a43.813,43.813,0,0,1,2.675,3.638C304.068,306.956,307.053,313.3,306.438,314.139Z" transform="translate(-138.646 -254.845)" fill="#e3f8fc"/>
        <path id="Path_413" data-name="Path 413" d="M254.667,318.486a1.64,1.64,0,1,1-1.634-1.783A1.713,1.713,0,0,1,254.667,318.486Z" transform="translate(-189.144 -263.327)" fill="#04060c" style="mix-blend-mode: multiply;isolation: isolate"/>
        <path id="Path_414" data-name="Path 414" d="M240.576,315.545a2.02,2.02,0,0,1-.014,3.089c-.357.285-.828.651-1.442,1.116-2.179,1.651-13.373.133-13.688.809l2.778-5.953s4.477-1.578,7.553-.974A11.955,11.955,0,0,1,240.576,315.545Z" transform="translate(-176.161 -261.869)" fill="#c9c399"/>
        <path id="Path_415" data-name="Path 415" d="M262.576,303.359a1.64,1.64,0,1,1-1.634-1.782A1.714,1.714,0,0,1,262.576,303.359Z" transform="translate(-193.098 -256.451)" fill="#04060c" style="mix-blend-mode: multiply;isolation: isolate"/>
        <path id="Path_416" data-name="Path 416" d="M234.921,298.838a16.987,16.987,0,0,1,8.572-.988c4.2.826,6.021,4.388,4.751,5.351s-12.534-.627-13.821.349a6.324,6.324,0,0,0-1.814,2.1S232.379,300.764,234.921,298.838Z" transform="translate(-179.747 -254.659)" fill="#c9c399"/>
        <path id="Path_417" data-name="Path 417" d="M237.182,340.116a1.641,1.641,0,1,1-1.635-1.782A1.714,1.714,0,0,1,237.182,340.116Z" transform="translate(-180.402 -273.16)" fill="#04060c" style="mix-blend-mode: multiply;isolation: isolate"/>
        <path id="Path_418" data-name="Path 418" d="M228.119,315.533s-1.9.617-2.778,5.953,4.936,10.594,6.569,9.356.842-3.72-.146-6.569S228.119,315.533,228.119,315.533Z" transform="translate(-176.071 -262.795)" fill="#e2d79a"/>
        <path id="Path_419" data-name="Path 419" d="M223.219,358.777a1.64,1.64,0,1,1-1.634-1.783A1.713,1.713,0,0,1,223.219,358.777Z" transform="translate(-173.421 -281.642)" fill="#04060c" style="mix-blend-mode: multiply;isolation: isolate"/>
        <path id="Path_420" data-name="Path 420" d="M216.92,331.783s3.994,10.318,3.16,14-2.958,2.8-4.47.424-1.9-7-1.9-7S215.345,332.389,216.92,331.783Z" transform="translate(-170.299 -270.182)" fill="#e2d79a"/>
        <path id="Path_421" data-name="Path 421" d="M211.475,375.576a1.64,1.64,0,1,1-1.634-1.782A1.713,1.713,0,0,1,211.475,375.576Z" transform="translate(-167.548 -289.279)" fill="#04060c" style="mix-blend-mode: multiply;isolation: isolate"/>
        <path id="Path_422" data-name="Path 422" d="M207.952,352.452s-3.328,2.112-4.2,4.748c-.337,1.02,1.341,9.925,3.264,10.3S207.952,352.452,207.952,352.452Z" transform="translate(-165.3 -279.578)" fill="#e2d79a"/>
        <path id="Path_423" data-name="Path 423" d="M187.419,413.547a1.641,1.641,0,1,1-1.635-1.783A1.714,1.714,0,0,1,187.419,413.547Z" transform="translate(-155.521 -306.54)" fill="#04060c" style="mix-blend-mode: multiply;isolation: isolate"/>
        <path id="Path_424" data-name="Path 424" d="M182.117,396.049c.09.657.481,7.3,2.568,7.714,2.923.574.867-14.012.867-14.012S181.792,393.692,182.117,396.049Z" transform="translate(-154.494 -296.533)" fill="#e2d79a"/>
        <path id="Path_425" data-name="Path 425" d="M257.887,258.369c.518.013,34.505.794,45.455-8.815,11.035-9.683,8.345-16.893,4.94-22.241s-.528-8.364-.528-8.364a4.064,4.064,0,0,0-2.03.173c-5.345,2.068.6,15.841-1.782,21.61s-19.051,15.1-28.561,15.7C267.726,256.912,260.437,257.973,257.887,258.369Z" transform="translate(-192.388 -218.867)" fill="#49519b"/>
        <path id="Path_426" data-name="Path 426" d="M257.887,258.369c.518.013,34.505.794,45.455-8.815,11.035-9.683,8.345-16.893,4.94-22.241s-.528-8.364-.528-8.364a4.064,4.064,0,0,0-2.03.173c-5.345,2.068.6,15.841-1.782,21.61s-19.051,15.1-28.561,15.7C267.726,256.912,260.437,257.973,257.887,258.369Z" transform="translate(-192.388 -218.867)" fill="#49519b"/>
        <path id="Path_427" data-name="Path 427" d="M307.754,218.924c-8.478-.815-.809,15.231-3.408,21.962-2.268,5.578-13.887,11.5-19.207,13.561-8.743,3.334-8.595,1.687-27.252,3.9,16.583-3.237,17.314-1.047,26.932-4.869,5.238-2.087,13.795-6.609,17.491-11.07,1.274-1.528,1.908-2.707,1.807-6.606C303.868,229.288,300.768,217.753,307.754,218.924Z" transform="translate(-192.388 -218.841)" fill="#5d6dce"/>
        <path id="Path_428" data-name="Path 428" d="M311.663,317.171c-.921,1.249-1.26,5.471-1.26,5.471l-2.786,2.444a21.783,21.783,0,0,1-3.655.125c-.865-.169-5.115,3.54-5.28,4.549-.135.84-.691,3.207-.875,3.982-.305.289-.6.584-.881.873l-1.225.927s-2.715-.142-6.6,2.8-4.95,2.209-4.95,2.209l-2.39,1.478.8,2.694-5.79,4.058-1.315-1.429-2.421,1.838,1.326,2.078-6.921,5.683-1.42-2.225-3.085,2.449,1.236,2.253-7.09,4.718-1.23-1.931-3.161,2.171,1.191,2.182-6.881,5.214-1.39-2.029-3.335,2.525.95,1.811-6.811,5.16-1.085-1.707-3.5,2.433.675,1.691-7.355,5.574-.891-1.085-2.955,2.018.305,1.745-6.671,5.056-1.64-1.62-3.13,2.373.819,2.242-6.67,5.056L202.5,401.1l-2.72,2.067-.24,2.16-6.515,3.4-.62-1.293-3.105,1.473.145,2.182-6.4,3.212-1.585-1.222-3.51,1.784,1.42,2.225a26.994,26.994,0,0,1-6.32,1.489c-2.161.338-7.141-1.26-12.206-3.54,25.311-8.47,66.957-39.494,66.957-39.494s42.476-33.587,62.641-53.953a199.084,199.084,0,0,0,15.335-16.875c.265.393.525.8.776,1.2.835,1.315,1.62,2.662,2.315,3.949C310.828,313.468,312.083,316.6,311.663,317.171Z" transform="translate(-143.87 -257.877)" fill="#b6cecd"/>
        <path id="Path_429" data-name="Path 429" d="M327.417,333.988l-2.773,2.378a17.633,17.633,0,0,1-3.763.094c-.787-.02-4.746,3.1-5.3,4.586-.028.085-.893,3.887-.906,3.942l-1.99,1.669a10.859,10.859,0,0,0-5.961,2.29c-3.685,2.892-5.661,2.678-5.661,2.678l-2.63,1.606.793,2.7-5.33,3.691-1.322-1.453-2.7,2.026-.332.249,1.317,2.089-6.247,5.109L283.2,365.42l-3.454,2.732-.331.261,1.211,2.219-6.339,4.2-1.233-1.943-3.94,2.7,1.2,2.2-6.125,4.624-1.391-2.032-4.1,3.114.955,1.812-6.047,4.6-1.075-1.685-4.209,2.937c.162.4.71,1.769.685,1.708l-6.716,5.109-.878-1.067-3.517,2.411c.021.118.328,1.859.311,1.763l-6.164,4.705-1.641-1.6-3.614,2.771.835,2.247-6.2,4.756-1.832-1.9-3.014,2.317c-.006.065-.239,2.254-.227,2.138l-6.17,3.277-.623-1.269-3.382,1.643c.011.143.169,2.253.165,2.2l-6.22,3.2-1.587-1.2-3.562,1.868c3.282,5.012.044.081.09.026l3.457-1.7,1.583,1.244,6.571-3.223c-.009-.152-.13-2.223-.126-2.166l2.826-1.307c.072.154.646,1.377.618,1.317l6.864-3.514c.007-.059.27-2.325.253-2.183l2.424-1.821,1.828,1.939,7.142-5.35-.805-2.237,2.643-1.979,1.64,1.637,7.181-5.4c-.021-.117-.311-1.794-.3-1.728l2.392-1.627.9,1.1,8-6.036-.665-1.674,2.79-1.931,1.095,1.729,7.576-5.717-.945-1.81,2.574-1.941,1.391,2.028,7.635-5.808-1.185-2.164,2.382-1.643,1.228,1.919,7.84-5.238-1.259-2.286,2.387-1.9L284.413,369l7.593-6.263-1.335-2.069,1.813-1.394,1.308,1.406,6.247-4.431-.818-2.686,2.029-1.271c1.556.427,4.55-1.957,5.769-2.834,3.471-2.425,5.766-2.268,5.822-2.287.07-.053,2.219-1.934,2.167-1.881l.053-.054c.689-3.307.86-4.151.94-4.272a15.91,15.91,0,0,1,4.32-4.005c1.009-.517-.135.049,4.391-.41l2.8-2.509a24.018,24.018,0,0,1,.685-4.308A23.313,23.313,0,0,0,327.417,333.988Z" transform="translate(-160.93 -269.251)" fill="#2f3535"/>
        <path id="Path_430" data-name="Path 430" d="M431.411,310.863c-6.96,9.283-22.156,23.366-23.426,23.366-1.585,0-2.5-.545-1.835-2.454s7.92-8.094,17.42-18.457c2.52-2.749,4.286-4.827,5.526-6.4C429.931,308.228,430.716,309.576,431.411,310.863Z" transform="translate(-266.409 -258.877)" fill="#c40e0e"/>
        <path id="Path_431" data-name="Path 431" d="M197.342,373.175l-2.926,4.241-1.378-.486.752-1.556S195.813,373.175,197.342,373.175Z" transform="translate(-159.965 -288.998)" fill="#a09b7d"/>
        <path id="Path_432" data-name="Path 432" d="M202.294,389.832a1.641,1.641,0,1,1-1.635-1.782A1.714,1.714,0,0,1,202.294,389.832Z" transform="translate(-162.958 -295.76)" fill="#04060c" style="mix-blend-mode: multiply;isolation: isolate"/>
        <path id="Path_433" data-name="Path 433" d="M191.51,377.207s3.223,5,3.876,7.291-5.317,1.634-6.644-.449S191.51,377.207,191.51,377.207Z" transform="translate(-157.684 -290.831)" fill="#e2d79a"/>
      </g>
      <path id="Path_434" data-name="Path 434" d="M216.623,337.824l-1.417,4.454s1.493,7.272,2.955,6.545S216.623,337.824,216.623,337.824Z" transform="translate(-44.156 -54.087)" fill="#e2d79a" opacity="0.48" style="mix-blend-mode: screen;isolation: isolate"/>
      <path id="Path_435" data-name="Path 435" d="M228.359,319.972l-1.68,4.192s3.139,8.863,4.43,7.454S228.359,319.972,228.359,319.972Z" transform="translate(-49.892 -45.972)" fill="#e2d79a" opacity="0.48" style="mix-blend-mode: screen;isolation: isolate"/>
      <path id="Path_436" data-name="Path 436" d="M207.878,356.994l-2.005,1.635s.917,9.272,1.667,7.636S207.878,356.994,207.878,356.994Z" transform="translate(-39.489 -62.801)" fill="#e2d79a" opacity="0.48" style="mix-blend-mode: screen;isolation: isolate"/>
      <path id="Path_437" data-name="Path 437" d="M191.392,380.95l-.981,3.84s3.095,3.339,3.466.96S191.392,380.95,191.392,380.95Z" transform="translate(-31.758 -73.691)" fill="#e2d79a" opacity="0.48" style="mix-blend-mode: screen;isolation: isolate"/>
    </g>
    <g id="Group_80" data-name="Group 80" transform="translate(88 983.729)">
      <g id="Ellipse_4" data-name="Ellipse 4" transform="translate(0 0.271)" stroke="rgba(0,0,0,0)" stroke-width="1" opacity="0.22">
        <ellipse cx="100" cy="8" rx="100" ry="8" stroke="none"/>
        <ellipse cx="100" cy="8" rx="99.5" ry="7.5" fill="none"/>
      </g>
    </g>
  </g>
</svg>
