<svg xmlns="http://www.w3.org/2000/svg" width="200" height="183.768" viewBox="0 0 200 183.768">
  <g id="Group_86" data-name="Group 86" transform="translate(-88 -817.946)">
    <g id="Group_83" data-name="Group 83">
      <g id="Group_80" data-name="Group 80" transform="translate(88 983.729)">
        <g id="Ellipse_4" data-name="Ellipse 4" transform="translate(0 0.271)" stroke="rgba(0,0,0,0)" stroke-width="1" opacity="0.22">
          <ellipse cx="100" cy="8" rx="100" ry="8" stroke="none"/>
          <ellipse cx="100" cy="8" rx="99.5" ry="7.5" fill="none"/>
        </g>
      </g>
    </g>
    <g id="Group_85" data-name="Group 85" transform="translate(-898.976 450.749) rotate(8)">
      <path id="Path_438" data-name="Path 438" d="M1130.775,390.282l-.787-1.146,3.546-5.346Z" transform="translate(-39.066 -76.432)" fill="#514c25"/>
      <path id="Path_439" data-name="Path 439" d="M1147.071,333.264s34.39-45.529,34.17-52.778-20.857-6.594-20.857-6.594Z" transform="translate(-48 -24.402)" fill="#361560"/>
      <path id="Path_440" data-name="Path 440" d="M1215.894,268.1c2.108,2.077,6.884,7.556,7.62,11.1s-6.83,10.1-33.013,28.789l-.857-1.273-5.127,3.658.673,2.1-10.562,7.168-1.48-2.526-3.223,2.423,1.385,2.841-5.2,3.715-1.479-2.526-3.116,2.223,1.479,2.526-17.262,12.627-2.524-2.335.277,3.939-9.652,7.381-1.377-2.351-2.405,1.717,1.376,2.351-11.218,7.577-1.2-2.048-2.484,1.773.977,2.143-10.721,7.281-1.25-2.134-2.64,1.884.82,2.07-10.046,6.429s-1.273-1.314-2.317-1-1.338,2.684-1.338,2.684-9.47,6.266-13.805,6.213c-3.392-.042-9.282-.653-13.425-2.48a11.176,11.176,0,0,1-2.956-1.816,17.043,17.043,0,0,1-3.688-5.089,8.51,8.51,0,0,1-.12-7.139c.321-.732.716-1.6,1.2-2.635a47.893,47.893,0,0,1,4.614-6.511c6.985-8.877,19.313-23,20.944-25.368,2.176-3.157,11.349-26.064,11.349-26.064s16.481-29.9,24.563-37.491,41.505-18.486,44.742-25.176,1.383-15.97,7.061-20.022a10.6,10.6,0,0,1,11.068-.96s4.147,4.373,8.733,9.317c1.191,1.283,2.41,2.6,3.6,3.9,1.723,1.877,3.369,3.7,4.743,5.252a55.133,55.133,0,0,1,8.632,12.829l2.059.078,1.53,2.612a2.572,2.572,0,0,1,1.446.946c.4.679,1.444,7.016,3.46,9.243C1215.8,268,1215.844,268.053,1215.894,268.1Z" transform="translate(0 -0.15)" fill="#070303"/>
      <path id="Path_441" data-name="Path 441" d="M1316.7,277.337l-53.77,40.226-3.22-3.575-6.276-2.9s-5.647-3.7-5.071-6.654,27.906-36.267,27.906-36.267,6.109-3.545,6.911-7.676-1.255-6.5,3.379-12.273c1.746-2.175,3.352-4.136,4.674-5.732,1.191,1.283,2.41,2.6,3.6,3.9,1.724,1.877,3.369,3.7,4.743,5.252a55.137,55.137,0,0,1,8.632,12.829l2.059.078,1.53,2.612a2.572,2.572,0,0,1,1.446.946C1313.635,268.772,1314.682,275.109,1316.7,277.337Z" transform="translate(-100.95 -9.54)" fill="#361560"/>
      <path id="Path_442" data-name="Path 442" d="M1201.044,236.983l-29.766,44.19-7.916,8.082-20.656,21.106L1128.384,325l-5.609,5.734a26.435,26.435,0,0,1-16.014,7.935l-5.454.587s-29.008,22.367-31.448,20.777a2.434,2.434,0,0,1-.872-1.18c6.986-8.875,19.315-23,20.942-25.367,2.18-3.158,11.352-26.065,11.352-26.065s1.445-2.617,3.683-6.5c5.338-9.243,15.19-25.642,20.879-30.983,2.387-2.242,6.975-4.772,12.35-7.389,12.829-6.268,30.113-13.071,32.394-17.79,3.238-6.691,1.383-15.97,7.061-20.02a10.6,10.6,0,0,1,11.069-.963S1195.292,230.709,1201.044,236.983Z" transform="translate(-7.165 -0.149)" fill="#4935bc"/>
      <path id="Path_443" data-name="Path 443" d="M1276.913,236.983l-29.767,44.19-7.916,8.082-20.656,21.106c-1.089-18.418-3.519-39.565-4.513-47.816,12.829-6.268,30.112-13.071,32.394-17.79,3.238-6.691,1.383-15.97,7.061-20.02a10.6,10.6,0,0,1,11.069-.963S1271.161,230.709,1276.913,236.983Z" transform="translate(-83.034 -0.149)" fill="#2b2568" opacity="0.38" style="mix-blend-mode: multiply;isolation: isolate"/>
      <path id="Path_444" data-name="Path 444" d="M1144.4,300.767c4.05-7.586,15.227-27.57,21.694-32.635,10.116-7.835,38.4-17.174,43.126-23.487l.206-.342c3.652-6.749.793-19.625,11.528-21.751a10.493,10.493,0,0,1,7.2,1.071,10.521,10.521,0,0,0-10.392.913c-3.2,1.912-4.188,6.132-4.752,10.031-1.971,12.954-.9,12.694-26.428,24.574C1164.2,269.4,1165.14,267.693,1144.4,300.767Z" transform="translate(-46.606 0)" fill="#4ebbe5"/>
      <path id="Path_445" data-name="Path 445" d="M1335.239,284.8l.744,1.857,1.776,12.868-43.176,34.824A38.74,38.74,0,0,1,1301,313.226c6.849-10.072,15.608-19.174,20.984-21.834a50.224,50.224,0,0,0,10.409-7.429l.932-.231A1.652,1.652,0,0,1,1335.239,284.8Z" transform="translate(-125.142 -29.046)" fill="#f967da"/>
      <path id="Path_446" data-name="Path 446" d="M1190.45,359.769,1166.9,386.574a45.265,45.265,0,0,0-15.556-7.161c-5.981-1.385-12.952-1.373-19.507,2.559-16.263,9.755-18.948,5.928-18.948,5.928,2.18-3.158,11.352-26.065,11.352-26.065s1.445-2.617,3.683-6.5a28.459,28.459,0,0,0,10.915-1.5c8.188-3.1,10.336-12.419,13.886-14.955,1.335-.951,6.216-1.262,11.793-1.279,9.261-.024,20.437.757,20.437.757l1.366,5.318Z" transform="translate(-30.123 -54.564)" fill="#f967da"/>
      <g id="Group_84" data-name="Group 84" transform="translate(1082.764 304.264)">
        <path id="Path_447" data-name="Path 447" d="M1151.166,414.291c-5.981-1.385-12.951-1.373-19.506,2.559-12.516,7.508-16.987,6.97-18.384,6.324-.146.259-.277.475-.388.637,0,0,2.685,3.827,18.948-5.928,6.555-3.933,13.526-3.944,19.507-2.559a45.266,45.266,0,0,1,15.556,7.161l1.213-1.38C1164.437,419.168,1157.376,415.722,1151.166,414.291Z" transform="translate(-1112.887 -394.739)" fill="#f786e2"/>
        <path id="Path_448" data-name="Path 448" d="M1270.207,377.916l-4.35,6.166,4.592-5.226Z" transform="translate(-1192.885 -377.916)" fill="#f786e2"/>
      </g>
      <path id="Path_449" data-name="Path 449" d="M1223.5,386.574c4.663-13.746.744-35.814-2.382-48.979,9.261-.024,20.437.757,20.437.757l1.366,5.318,4.131,16.1Z" transform="translate(-86.723 -54.564)" fill="#c149aa"/>
      <path id="Path_450" data-name="Path 450" d="M1198.709,339.55l-.856-1.274-5.126,3.662.676,2.1-10.563,7.172-1.478-2.529-3.227,2.424,1.387,2.841-5.2,3.715-1.479-2.524-3.116,2.224,1.478,2.524-17.262,12.625-2.526-2.336.276,3.944-9.649,7.377-1.377-2.348-2.408,1.713,1.377,2.354-11.218,7.577-.266-.458-.93-1.591-2.489,1.773.979,2.143-10.719,7.283-1.254-2.137-2.638,1.884.819,2.072-10.043,6.427s-1.276-1.314-2.318-1-1.34,2.683-1.34,2.683-9.468,6.262-13.806,6.209c-3.392-.041-9.275-.654-13.423-2.479.617-.382,1.279-.785,1.986-1.225,16.221-10,56.834-35.3,62.938-41.63,2.733-2.829,6.214-7.078,10.42-12.085,7.565-9,17.486-20.471,29.666-30.6,18.953-15.747,21.8-21.974,26.333-26.447s16.72-12.308,16.72-12.308,1.371-.112,1.776.587,1.17,7.689,3.28,9.76a45.606,45.606,0,0,1,5.593,6.814,13.679,13.679,0,0,1,2.025,4.29C1232.458,314.312,1224.893,320.862,1198.709,339.55Z" transform="translate(-8.211 -31.704)" fill="#ed0c97"/>
      <path id="Path_451" data-name="Path 451" d="M1261.374,339.55l-.856-1.274-5.126,3.662.676,2.1-10.563,7.172-1.478-2.529L1240.8,351.1l1.387,2.841-5.2,3.715-1.479-2.524-3.116,2.224,1.478,2.524L1216.6,372.506l-2.526-2.336.276,3.944-9.649,7.377-1.377-2.348-2.408,1.713,1.377,2.354-11.218,7.577-.266-.458C1217.485,364.524,1209,358.66,1209,358.66c7.565-9,17.486-20.471,29.666-30.6,18.953-15.747,21.8-21.974,26.333-26.447s16.72-12.308,16.72-12.308,1.371-.112,1.776.587c.308.522.814,4.59,1.935,7.46a11.415,11.415,0,0,0,.511,1.121,4.8,4.8,0,0,0,.834,1.18c.1.094.192.194.3.305.244.24.51.522.8.827.191.211.394.434.612.669.223.252.457.522.7.8a41.422,41.422,0,0,1,3.19,4.208,13.679,13.679,0,0,1,2.025,4.29C1295.123,314.312,1287.558,320.862,1261.374,339.55Z" transform="translate(-70.875 -31.704)" fill="#6b485f" opacity="0.46" style="mix-blend-mode: multiply;isolation: isolate"/>
      <path id="Path_452" data-name="Path 452" d="M1327.4,305.716l-57.307,49.507,56.8-50.628A11.385,11.385,0,0,0,1327.4,305.716Z" transform="translate(-112.334 -38.943)" fill="#6b485f" opacity="0.46" style="mix-blend-mode: multiply;isolation: isolate"/>
      <path id="Path_453" data-name="Path 453" d="M1317.93,310.371,1248.3,368.489l68.833-58.945C1317.376,309.784,1317.643,310.066,1317.93,310.371Z" transform="translate(-100.939 -41.286)" fill="#6b485f" opacity="0.46" style="mix-blend-mode: multiply;isolation: isolate"/>
      <path id="Path_454" data-name="Path 454" d="M1352.669,313.19l-40.443,34.98,39.747-35.784C1352.2,312.638,1352.43,312.908,1352.669,313.19Z" transform="translate(-134.37 -42.631)" fill="#6b485f" opacity="0.46" style="mix-blend-mode: multiply;isolation: isolate"/>
      <path id="Path_455" data-name="Path 455" d="M1070.981,413.608c62.894-40.237,62.219-40.246,68.929-48.132,6.137-7.152,18.353-22.863,33.633-35.969,13.035-11.065,15.035-12.386,26.265-25.518a31.141,31.141,0,0,1,4.386-4.327,166.112,166.112,0,0,1,14.853-10.347c-27.454,18.465-11.191,12.176-44.937,40.991-21.579,18.667-32.606,37.6-42.308,44.513C1117.159,385.618,1086.368,404.47,1070.981,413.608Z" transform="translate(-8.208 -31.71)" fill="#ffb3e6"/>
      <path id="Path_456" data-name="Path 456" d="M1231.724,326.192c.736,3.548-6.83,10.1-33.013,28.789l-.857-1.273-5.127,3.658.673,2.1-10.562,7.168-1.48-2.526-3.223,2.423,1.385,2.841-5.2,3.715-1.479-2.526-3.116,2.223,1.479,2.526-17.262,12.627-2.525-2.335.277,3.939-9.652,7.381-1.377-2.351-2.405,1.717,1.376,2.351-11.218,7.577-1.2-2.048-2.484,1.773.977,2.143-10.721,7.281-1.25-2.134-2.64,1.884.82,2.07-10.046,6.429s-1.273-1.314-2.317-1-1.338,2.684-1.338,2.684-9.47,6.266-13.805,6.213c-3.392-.042-9.282-.653-13.425-2.48.613-.379,1.234-.8,1.945-1.244l3.323.965s15.361-3.556,40.1-19.734,101.532-72.365,105.824-76.494c3.838-3.695,6.961-7.005,7.519-10.625A13.7,13.7,0,0,1,1231.724,326.192Z" transform="translate(-8.211 -47.135)" fill="#f9efc5"/>
      <path id="Path_457" data-name="Path 457" d="M1231.724,330.05a2.817,2.817,0,0,1-.128,1.447c-2.056,5.846-25.7,22.021-32.847,27.111l-.856-1.277-5.367,3.817.668,2.1-10.3,6.962c-.034-.06-1.516-2.6-1.482-2.541l-3.542,2.654c.037.077,1.441,2.966,1.376,2.834l-4.869,3.463-1.477-2.532-3.494,2.485,1.474,2.527-16.926,12.338-2.855-2.641.32,4.466-9.318,7.15-1.373-2.337-2.793,2c.038.064,1.445,2.458,1.379,2.347l-10.84,7.347-1.2-2.046-2.8,2,.98,2.141-10.416,7.1-1.253-2.132-2.9,2.074c.039.1.854,2.147.821,2.064l-9.83,6.315c-1.861-1.743-3.324-1.317-3.783,1.775-3.323,2.175-9.164,5.627-13.021,6.187a37.591,37.591,0,0,1-14.091-2.36,37.27,37.27,0,0,0,12.3,2.512c5.652.309,13.843-5.514,15.049-6.153a7.193,7.193,0,0,1,.361-1.491c.977-2.545,3.049-.129,3.154-.09l10.269-6.547c-.039-.1-.848-2.147-.819-2.075l2.384-1.7,1.246,2.136,11.027-7.462-.974-2.146,2.17-1.542,1.195,2.048,11.6-7.8c-.035-.061-1.448-2.482-1.373-2.355l2.018-1.435,1.38,2.364,9.987-7.611c-.006-.087-.245-3.559-.235-3.415.054.051,2.251,2.082,2.2,2.031l17.6-12.916-1.484-2.525,2.739-1.962,1.48,2.519,5.539-3.968c-.038-.078-1.477-3.019-1.393-2.846l2.907-2.192,1.475,2.511,10.828-7.374c-.044-.136-.7-2.167-.678-2.105l4.886-3.5c.124.184.907,1.343.857,1.27,6.849-4.923,30.924-21.693,32.934-27.569A2.84,2.84,0,0,0,1231.724,330.05Z" transform="translate(-8.211 -50.993)" fill="#33322d"/>
      <path id="Path_458" data-name="Path 458" d="M1128.1,417.249a1.746,1.746,0,1,1-1.737-1.919A1.835,1.835,0,0,1,1128.1,417.249Z" transform="translate(-36.26 -91.362)" fill="#04060c" opacity="0.53" style="mix-blend-mode: multiply;isolation: isolate"/>
      <path id="Path_459" data-name="Path 459" d="M1120.578,413.168s.486-4.676,2.445-5.453.346,2.1.677,2.669,1.469,2.032,1.52,3.171-1.156,1.939-2.149,2.153A2.239,2.239,0,0,1,1120.578,413.168Z" transform="translate(-34.144 -87.695)" fill="#eae298"/>
      <path id="Path_460" data-name="Path 460" d="M1140.594,396.9a1.746,1.746,0,1,1-1.737-1.919A1.835,1.835,0,0,1,1140.594,396.9Z" transform="translate(-42.796 -81.731)" fill="#04060c" opacity="0.53" style="mix-blend-mode: multiply;isolation: isolate"/>
      <path id="Path_461" data-name="Path 461" d="M1124.208,402.217a14.908,14.908,0,0,0,3.031-.661c1.844-.575,4.916-2.583,5.126-3.658s.4-2.416-1.384-2.84-3.763,1.081-3.763,1.081S1123.575,400.755,1124.208,402.217Z" transform="translate(-36.005 -81.731)" fill="#eae298"/>
      <path id="Path_462" data-name="Path 462" d="M1152.317,377.853a2.385,2.385,0,0,1-1.588,2.843,2.2,2.2,0,0,1-2.379-2.065,2.386,2.386,0,0,1,1.589-2.844A2.2,2.2,0,0,1,1152.317,377.853Z" transform="translate(-48.648 -72.629)" fill="#04060c" opacity="0.53" style="mix-blend-mode: multiply;isolation: isolate"/>
      <path id="Path_463" data-name="Path 463" d="M1129.7,385.1s10.39-3.451,11.384-5-.781-5.344-2.182-4.776a60.751,60.751,0,0,0-5.736,3.476S1128.278,384.389,1129.7,385.1Z" transform="translate(-38.781 -72.398)" fill="#eae298"/>
      <path id="Path_464" data-name="Path 464" d="M1190.578,322.92a2.386,2.386,0,0,1-1.588,2.844,2.2,2.2,0,0,1-2.379-2.065,2.385,2.385,0,0,1,1.589-2.843A2.2,2.2,0,0,1,1190.578,322.92Z" transform="translate(-68.658 -46.626)" fill="#04060c" opacity="0.53" style="mix-blend-mode: multiply;isolation: isolate"/>
      <path id="Path_465" data-name="Path 465" d="M1161.6,320.283l-1.064.759c-.916.655-.679,2.683-.5,2.988l.524.894s12.505.759,14.07.054c1.694-.764,1.57-1.128,1.386-1.922a1.535,1.535,0,0,0-.51-.748,2.841,2.841,0,0,0-1.583-.68Z" transform="translate(-54.694 -46.369)" fill="#eae298"/>
      <path id="Path_466" data-name="Path 466" d="M1183.717,338.461a2.291,2.291,0,0,1-1.612,2.7,2.111,2.111,0,0,1-2.356-1.924,2.292,2.292,0,0,1,1.611-2.7A2.112,2.112,0,0,1,1183.717,338.461Z" transform="translate(-65.072 -54.048)" fill="#04060c" opacity="0.53" style="mix-blend-mode: multiply;isolation: isolate"/>
      <path id="Path_467" data-name="Path 467" d="M1154.093,346.386s-.846-.359-.912-2.287a11.5,11.5,0,0,1,.714-3.842c.139-.717,2.358-2.177,4.733-2.514s9.789.632,9.789.632,2.176.595,1.258,2.231-2.791,2.355-5.766,2.811-5.741-.779-7.539.256A5.06,5.06,0,0,0,1154.093,346.386Z" transform="translate(-51.193 -54.601)" fill="#eae298"/>
      <path id="Path_468" data-name="Path 468" d="M1164.675,356.027a2.384,2.384,0,0,1-1.588,2.843,2.2,2.2,0,0,1-2.379-2.065,2.384,2.384,0,0,1,1.589-2.843A2.2,2.2,0,0,1,1164.675,356.027Z" transform="translate(-55.111 -62.297)" fill="#04060c" opacity="0.53" style="mix-blend-mode: multiply;isolation: isolate"/>
      <path id="Path_469" data-name="Path 469" d="M1149.4,348.291a16.433,16.433,0,0,0-2.487,4.058c-.676,1.9.19,5.481.19,5.481a13.314,13.314,0,0,0,6.411-1.367c2.925-1.594,3.882-4.905,2.272-5.287a19.613,19.613,0,0,0-5.105.125S1151.569,347.023,1149.4,348.291Z" transform="translate(-47.785 -59.517)" fill="#eae298"/>
      <path id="Path_470" data-name="Path 470" d="M1204.23,320.918a1.3,1.3,0,0,1-.327,1.684,1.043,1.043,0,0,1-1.526-.361,1.3,1.3,0,0,1,.328-1.684A1.042,1.042,0,0,1,1204.23,320.918Z" transform="translate(-76.831 -46.406)" fill="#361560"/>
      <path id="Path_471" data-name="Path 471" d="M1168.951,354.219s1.767,18.549-5.676,24.947-19.558,3.464-22.08,6.248,2.254-9.833,8.35-12.376S1168.951,357.44,1168.951,354.219Z" transform="translate(-44.567 -62.434)" fill="#f985e4"/>
      <path id="Path_472" data-name="Path 472" d="M1137.785,379.853c-.352.038-3.887,2.057-3.887,2.057s-4.287,3.338-2.958,3.7S1142.836,379.3,1137.785,379.853Z" transform="translate(-39.431 -74.553)" fill="#fffad7"/>
      <path id="Path_473" data-name="Path 473" d="M1132.067,396.954s-2.895.537-3.707,2.579,3.773-.012,4.571-.892S1132.067,396.954,1132.067,396.954Z" transform="translate(-38.165 -82.664)" fill="#fffad7"/>
      <path id="Path_474" data-name="Path 474" d="M1122.831,411.152s-2.146,2.4-.674,4.309,2.591,1.467,2.127-.807S1123.744,410.779,1122.831,411.152Z" transform="translate(-34.701 -89.359)" fill="#fffad7"/>
      <path id="Path_475" data-name="Path 475" d="M1147.653,356.819s-1.566,3.467,0,4.081,7.813-1.807,7.481-3.054S1147.653,356.819,1147.653,356.819Z" transform="translate(-47.941 -63.657)" fill="#fffad7"/>
      <path id="Path_476" data-name="Path 476" d="M1155.815,342.055s-1.942,2.935-.718,3.155,8.236-1.064,9.266-2.2S1155.815,342.055,1155.815,342.055Z" transform="translate(-51.986 -56.671)" fill="#fffad7"/>
      <path id="Path_477" data-name="Path 477" d="M1161.817,321.9s-2.182,2.035-.586,2.7,10.035,1.32,9.636,0S1161.817,321.9,1161.817,321.9Z" transform="translate(-55.1 -47.135)" fill="#fffad7"/>
    </g>
  </g>
</svg>
