<svg xmlns="http://www.w3.org/2000/svg" width="210" height="195.518" viewBox="0 0 210 195.518">
  <g id="Group_73" data-name="Group 73" transform="translate(-83 -451.808)">
    <g id="Group_4" data-name="Group 4" transform="translate(-366.631 -292.207) rotate(7)">
      <path id="Path_304" data-name="Path 304" d="M649.11,708.482c-1.7-8.778,3.405-17.473,12.191-20.742,5.176-1.926,13.092-3.067,16.989.83,7.221,7.221-24,61.985-24,61.985l-7.725-.548a109.551,109.551,0,0,0,5.269-17.962C652.723,727.251,650.779,717.1,649.11,708.482Z" transform="translate(-36.231 -3.005)" fill="#0c0c0c"/>
      <path id="Path_305" data-name="Path 305" d="M733.611,730.066s1.466,9.544-5.117,15.091-44,39.953-44,39.953-65.135,56.412-81.714,65.181-31.682-8.539-31.682-8.539-2.971-5.863-1.7-11.783c.021-.106.045-.211.069-.315,1.114-4.654,15.281-21.263,23.1-31.322a58.511,58.511,0,0,0,4.768-6.723,51.975,51.975,0,0,0,2.513-7.019c1.516-4.911,3.374-11.643,5.317-18.728,3.251-11.886,6.728-24.76,9.158-31.685,2.48-7.067,1.993-14.507.922-20.1a48.466,48.466,0,0,0-2.6-9.033c-.34-2.882,1.692-6.084,5.055-9.036,6.7-5.893,18.669-10.811,27.6-10.326,9.2.5,18.745-2.909,23.831-5.1a8.465,8.465,0,0,1,7.5.4c4.8,2.7,12.983,7.184,17.2,8.866,6.2,2.474,23.294,24.266,23.294,24.266l9,8.719Z" transform="translate(0 -0.162)" fill="#252326"/>
      <path id="Path_306" data-name="Path 306" d="M661.172,866.765,596.166,917.7l-25.061-.447a19.742,19.742,0,0,1-1.054-2.715,18.325,18.325,0,0,1-.649-9.068c.021-.106.043-.213.069-.314,1.443-6.027,24.779-32.11,27.872-38.046a52.4,52.4,0,0,0,2.512-7.018c1.513-4.914,3.37-11.644,5.313-18.73,3.4,5.4,8.875,12.474,14.354,12.772,4.973.266,12.405.383,19.028.884,5.234.393,9.956,1.022,12.554,2.151C656.983,859.727,661.172,866.765,661.172,866.765Z" transform="translate(0 -75.666)" fill="#c97209"/>
      <path id="Path_307" data-name="Path 307" d="M662.021,878.759,597.014,929.7l-20.983,4.768c-1-1.565-4.078-5.215-4.078-5.215a19.746,19.746,0,0,1-1.054-2.715c20.3-10,53.342-43.5,68.5-59.518,5.234.393,9.956,1.022,12.554,2.151C657.831,871.721,662.021,878.759,662.021,878.759Z" transform="translate(-0.848 -87.66)" fill="#c97209" opacity="0.35" style="mix-blend-mode: multiply;isolation: isolate"/>
      <path id="Path_308" data-name="Path 308" d="M612.4,891.9c-4.917,8.824-14.332,14.9-28.678,24.159-7.9,5.1-11.979,6.044-14.048,5.867.021-.106.045-.211.069-.315,1.443-6.029,24.781-32.108,27.871-38.045a51.976,51.976,0,0,0,2.513-7.019C603.21,877.833,616.769,884.054,612.4,891.9Z" transform="translate(-0.277 -92.114)" fill="#494746"/>
      <path id="Path_309" data-name="Path 309" d="M767.191,727.557l-24.358,20.519a6.867,6.867,0,0,1-7.295.99,6.758,6.758,0,0,1-3.141-2.944c-2.769-5.106-5.249-12.107-2.305-17.66,5.277-9.956,8.727-17.239-3.918-19.417s-44.041,13.486-48.546,10.723c-1.693-1.038-4.142-5.116-6.543-9.8a16.109,16.109,0,0,1,9.461-22.724,33.946,33.946,0,0,1,11.622-1.724c9.631.521,19.63-3.232,24.512-5.394a6.688,6.688,0,0,1,3-.574,6.826,6.826,0,0,1,3.125.873c4.669,2.635,13.465,7.492,17.895,9.259,5.739,2.289,20.8,21.11,23.016,23.916a6.463,6.463,0,0,0,.607.666l3.221,3.12A6.861,6.861,0,0,1,767.191,727.557Z" transform="translate(-46.862 0)" fill="#c97209"/>
      <path id="Path_310" data-name="Path 310" d="M811.437,727.562l-24.358,20.519a6.867,6.867,0,0,1-7.295.99c-.25-20.865,11.138-40.91,11.138-46.287,0-4-15.616-15.43-26.993-23.229a6.826,6.826,0,0,1,3.125.873c4.669,2.635,13.465,7.492,17.895,9.259,5.739,2.289,20.8,21.11,23.016,23.916a6.456,6.456,0,0,0,.607.665l3.221,3.12A6.861,6.861,0,0,1,811.437,727.562Z" transform="translate(-91.108 -0.005)" fill="#c97209" opacity="0.35" style="mix-blend-mode: multiply;isolation: isolate"/>
      <path id="Path_311" data-name="Path 311" d="M662.3,755.555c-.4,6.592-10.968,19.252-15.53,25.4s-7.23,19.571-13.134,24.539-7.1,15.8-13.119,19.14a10.741,10.741,0,0,1-7.315,1.427c1.933-2.492,3.477-4.573,4.339-5.979.176-.276.314-.527.431-.745a52.411,52.411,0,0,0,2.512-7.018c1.513-4.914,3.37-11.644,5.313-18.73,3.254-11.883,6.73-24.757,9.158-31.684,2.481-7.065,2-14.508.926-20.1,5.835-1.491,12.384-2.838,16.207-2.583a5.455,5.455,0,0,1,2.54.655A17.622,17.622,0,0,1,662.3,755.555Z" transform="translate(-20.628 -27.892)" fill="#494746"/>
      <path id="Path_312" data-name="Path 312" d="M659.944,752.053c0,8.508-8.944,19.039-14.268,29.921s-11.063,19.678-15.578,22.851-2.5,12.14-6.144,14.476a5.467,5.467,0,0,1-2.6.783c.176-.276.314-.527.431-.745a52.418,52.418,0,0,0,2.512-7.018c.953-3.1,2.045-6.911,3.205-11.084.682-2.45,1.39-5.021,2.108-7.646,3.254-11.883,6.73-24.757,9.158-31.684,2.481-7.065,2-14.508.926-20.1a96.542,96.542,0,0,1,11.9-2.391,24.445,24.445,0,0,1,4.308-.192C657.852,742.73,659.944,747.527,659.944,752.053Z" transform="translate(-24.439 -27.893)" fill="#494746" opacity="0.51" style="mix-blend-mode: screen;isolation: isolate"/>
      <path id="Path_313" data-name="Path 313" d="M662.922,749.794c-2.263,7.592-13.864,19.4-16.584,29.378s-6.576,18.762-11.835,21.914a2.364,2.364,0,0,1-1.6.347c.682-2.45,1.39-5.021,2.108-7.646,3.254-11.883,6.73-24.757,9.158-31.684,2.481-7.065,2-14.508.926-20.1a96.535,96.535,0,0,1,11.9-2.391C660.419,741.813,664.242,745.376,662.922,749.794Z" transform="translate(-29.839 -28.089)" fill="#494746" opacity="0.51" style="mix-blend-mode: screen;isolation: isolate"/>
      <path id="Path_314" data-name="Path 314" d="M668.714,717.973c.2-.057.44.131.529.41l6.81,21.256c.089.279,0,.563-.2.619l-6.321,1.808c-.2.057-.44-.131-.53-.41L662.193,720.4c-.089-.28,0-.562.2-.619l6.321-1.809Zm-.824-2.572-6.321,1.808c-1.2.345-1.743,2.015-1.2,3.712l6.81,21.257c.544,1.7,1.973,2.8,3.176,2.459l6.321-1.809c1.2-.344,1.743-2.015,1.2-3.711l-6.81-21.256c-.544-1.7-1.973-2.8-3.176-2.46Z" transform="translate(-42.585 -16.737)" fill="#d8ba98"/>
      <path id="Path_315" data-name="Path 315" d="M657.277,726.773s6.869,17.017,6.131,17.638-11.084,6.065-12.157,6.007-7.313-15.689-5.711-17.9S657.277,726.773,657.277,726.773Z" transform="translate(-35.628 -22.084)" fill="#ed7f07"/>
      <path id="Path_316" data-name="Path 316" d="M672.624,708.586l6.558,16.667s32.3-11.1,35.823-14.06,6.734-13.376,4.2-17.788-3.907-1.317-17.433,3.329S672.624,708.586,672.624,708.586Z" transform="translate(-48.414 -5.485)" fill="#ed7f07"/>
      <path id="Path_317" data-name="Path 317" d="M624.686,868.344a3.323,3.323,0,0,0-2.939.661c-1.362,1.147-2.311,5.54-2.311,5.54l2.261,3.229a3.178,3.178,0,0,0,3.6.244,2.98,2.98,0,0,0,.667-4.476,14.732,14.732,0,0,1-1.825-3.317Z" transform="translate(-23.544 -88.234)" fill="#efcaa3"/>
      <path id="Path_318" data-name="Path 318" d="M631.42,854.869s-1.47-.289-2.081.215-.481,5.072-.481,5.072L630.574,862s3.739.756,4.615.948,1.321-1.561,1.144-3.312S631.42,854.869,631.42,854.869Z" transform="translate(-27.944 -81.942)" fill="#efcaa3"/>
      <path id="Path_319" data-name="Path 319" d="M635.753,836.476s-1.109-.2-2.368,1.995a3.219,3.219,0,0,0,.743,3.935s4.052,1.353,4.731,2.073,1.8,2.134,3.577,1.862a2.116,2.116,0,0,0,1.685-2.822C643.808,842.755,637.63,836.265,635.753,836.476Z" transform="translate(-29.871 -73.377)" fill="#efcaa3"/>
      <path id="Path_320" data-name="Path 320" d="M640.474,819.549s-4.682,3.074-1.711,6.224l6.952.5s1.912.443,2.631-.162.073-3.522-2.535-4.631S640.474,819.549,640.474,819.549Z" transform="translate(-32.119 -65.465)" fill="#efcaa3"/>
      <path id="Path_321" data-name="Path 321" d="M647.69,794.4s-2.88,4.806-1.465,6.306,10.084,6.613,11.981,6.716,2.7-.159,2.838-2.391-2.029-2.847-5.087-4.7S647.69,794.4,647.69,794.4Z" transform="translate(-35.887 -53.707)" fill="#efcaa3"/>
      <path id="Path_322" data-name="Path 322" d="M650.48,787.014s-1.639-2.159-.674-3.871a6.754,6.754,0,0,1,2.464-2.493s10.119,1,11.4,2.363,1.03,3.252-.61,3.889S650.48,787.014,650.48,787.014Z" transform="translate(-37.602 -47.277)" fill="#efcaa3"/>
      <path id="Path_323" data-name="Path 323" d="M734.858,760.114s1.466,9.545-5.117,15.091-44,39.952-44,39.952-65.135,56.412-81.714,65.181-24.484,6.508-25.663,4.679c-1.026-1.584-4.656-6.587-5.94-9.184a5.806,5.806,0,0,1-.4-1c-.323-1.219-.506-2.2.326-3.036,3.567.179,13.753-1.137,38.371-19.427,32.254-23.964,55.425-55.547,70.522-70.063,15.026-14.444,27.926-24.957,37.12-38.074a.191.191,0,0,1,.3-.022l2.257,2.4Z" transform="translate(-1.247 -30.21)" fill="#ffe8d2"/>
      <path id="Path_324" data-name="Path 324" d="M730.336,777.212c-6.586,5.547-44,39.952-44,39.952s-65.135,56.414-81.714,65.182-24.485,6.507-25.662,4.68c-.511-.788-1.672-2.428-2.865-4.2a51.676,51.676,0,0,1-3.077-4.989c2.641-.154,7.054-1.267,14.4-4.744,16.707-7.912,51.26-34.457,64.89-51.329s40.729-44.578,52.384-54.4c8.582-7.23,14.279-14.045,16.738-18.741a.336.336,0,0,1,.538-.085l7.789,7.9L731.289,758l2.2,2.231,1.959,1.9S736.916,771.67,730.336,777.212Z" transform="translate(-1.84 -32.219)" fill="#efc495"/>
      <path id="Path_325" data-name="Path 325" d="M801.114,822.246l.472,2.875,13.921-12.883-.521-2.064Z" transform="translate(-108.495 -61.082)" fill="#efc495" style="mix-blend-mode: multiply;isolation: isolate"/>
      <path id="Path_326" data-name="Path 326" d="M858.213,768.43c-1.268,2.273-10.781,11.681-10.781,11.681l-.852-1.879s8.635-8.769,10.206-11.526.788-3.28.884-3.243l1.533,1.555c.08.133.122.213.122.213S859.48,766.156,858.213,768.43Z" transform="translate(-129.754 -39.239)" fill="#efc495" style="mix-blend-mode: multiply;isolation: isolate"/>
      <path id="Path_327" data-name="Path 327" d="M738.155,772.294s1.466,9.545-5.117,15.091-44,39.952-44,39.952-65.135,56.412-81.714,65.181-24.484,6.508-25.663,4.679c-.512-.789-1.67-2.427-2.862-4.2a39.656,39.656,0,0,0,17.081-2.682c12.948-4.844,51.2-33.607,60.572-42.462s41.06-35.938,42.763-37.372c1.668-1.4,32.781-25.9,36.958-40.038a.348.348,0,0,1,.62-.1Z" transform="translate(-4.544 -42.39)" fill="#472f15"/>
      <path id="Path_328" data-name="Path 328" d="M655.643,733.074s-6.54,1.9-7.9,3.26,3.371,14.708,5.1,14.708,6.479-1.73,8.031-4.659S659.769,733.074,655.643,733.074Z" transform="translate(-36.669 -25.03)" fill="#ed7f07" opacity="0.27" style="mix-blend-mode: screen;isolation: isolate"/>
      <path id="Path_329" data-name="Path 329" d="M677.644,717.695l5.044,11.78s23.65-6.322,26.978-11.78,5.058-12.911-2.928-11.314S677.644,717.695,677.644,717.695Z" transform="translate(-50.761 -12.446)" fill="#ed7f07" opacity="0.27" style="mix-blend-mode: screen;isolation: isolate"/>
      <path id="Path_330" data-name="Path 330" d="M610.749,894.166s-29.79,25.943-24.72,28.036,12.815-5.9,12.815-5.9S617.3,902.315,617.3,898.681,610.749,894.166,610.749,894.166Z" transform="translate(-7.651 -100.355)" fill="#494746" opacity="0.4" style="mix-blend-mode: screen;isolation: isolate"/>
    </g>
    <g id="Ellipse_4" data-name="Ellipse 4" transform="translate(83 631)" fill="#fff" stroke="#707070" stroke-width="1" opacity="0.22">
      <ellipse cx="105" cy="8" rx="105" ry="8" stroke="none"/>
      <ellipse cx="105" cy="8" rx="104.5" ry="7.5" fill="none"/>
    </g>
  </g>
</svg>
